<?xml version="1.0" encoding="UTF-8" standalone="no"?>
<!DOCTYPE svg PUBLIC "-//W3C//DTD SVG 1.1//EN"
 "http://www.w3.org/Graphics/SVG/1.1/DTD/svg11.dtd">
<!-- Generated by graphviz version 2.43.0 (0)
 -->
<!-- Title: TT Pages: 1 -->
<svg width="1229pt" height="1132pt"
 viewBox="0.00 0.00 1228.67 1132.05" xmlns="http://www.w3.org/2000/svg" xmlns:xlink="http://www.w3.org/1999/xlink">
<g id="graph0" class="graph" transform="scale(1 1) rotate(0) translate(4 1128.05)">
<title>TT</title>
<polygon fill="white" stroke="transparent" points="-4,4 -4,-1128.05 1224.67,-1128.05 1224.67,4 -4,4"/>
<text text-anchor="start" x="515.34" y="-1113.05" font-family="Arial" font-weight="bold" font-size="10.00">Bouračka — TestTargets scope (R1 + R2)</text>
<text text-anchor="start" x="360.84" y="-1103.85" font-family="Arial" font-size="9.00">7 R1 (active) + 11 R2 (deferred) · colour = priority (A=red B=yellow C=green D=gray) · border = release (blue=R1 gray=R2)</text>
<!-- center -->
<g id="node1" class="node">
<title>center</title>
<ellipse fill="#1f4e79" stroke="black" stroke-width="2" cx="616.19" cy="-546.17" rx="57.5" ry="57.5"/>
<text text-anchor="start" x="593.69" y="-553.17" font-family="Arial" font-weight="bold" font-size="10.00" fill="white">Bouračka</text>
<text text-anchor="start" x="585.69" y="-543.97" font-family="Arial" font-size="9.00" fill="white">tst.bouracka.cz</text>
<text text-anchor="start" x="572.69" y="-534.97" font-family="Arial" font-size="9.00" fill="white">tst.demo.bouracka.cz</text>
</g>
<!-- hub_r1_auth -->
<g id="node2" class="node">
<title>hub_r1_auth</title>
<path fill="#bdd7ee" stroke="#1f4e79" stroke-width="2" d="M934.61,-664.92C934.61,-664.92 854.61,-664.92 854.61,-664.92 848.61,-664.92 842.61,-658.92 842.61,-652.92 842.61,-652.92 842.61,-640.92 842.61,-640.92 842.61,-634.92 848.61,-628.92 854.61,-628.92 854.61,-628.92 934.61,-628.92 934.61,-628.92 940.61,-628.92 946.61,-634.92 946.61,-640.92 946.61,-640.92 946.61,-652.92 946.61,-652.92 946.61,-658.92 940.61,-664.92 934.61,-664.92"/>
<text text-anchor="middle" x="894.61" y="-649.92" font-family="Arial" font-size="10.00" fill="#1f4e79">Vstup + Auth</text>
<text text-anchor="middle" x="894.61" y="-638.92" font-family="Arial" font-size="10.00" fill="#1f4e79">(SMS PING + OTP)</text>
</g>
<!-- center&#45;&gt;hub_r1_auth -->
<g id="edge1" class="edge">
<title>center&#45;&gt;hub_r1_auth</title>
<path fill="none" stroke="#7f7f7f" d="M670.53,-565.83C721.02,-584.1 795.58,-611.08 844.62,-628.83"/>
</g>
<!-- hub_r1_driver -->
<g id="node3" class="node">
<title>hub_r1_driver</title>
<path fill="#bdd7ee" stroke="#1f4e79" stroke-width="2" d="M884.68,-787.53C884.68,-787.53 760.68,-787.53 760.68,-787.53 754.68,-787.53 748.68,-781.53 748.68,-775.53 748.68,-775.53 748.68,-763.53 748.68,-763.53 748.68,-757.53 754.68,-751.53 760.68,-751.53 760.68,-751.53 884.68,-751.53 884.68,-751.53 890.68,-751.53 896.68,-757.53 896.68,-763.53 896.68,-763.53 896.68,-775.53 896.68,-775.53 896.68,-781.53 890.68,-787.53 884.68,-787.53"/>
<text text-anchor="middle" x="822.68" y="-772.53" font-family="Arial" font-size="10.00" fill="#1f4e79">Driver data</text>
<text text-anchor="middle" x="822.68" y="-761.53" font-family="Arial" font-size="10.00" fill="#1f4e79">(zenID + AISPOV ROB/CRR)</text>
</g>
<!-- center&#45;&gt;hub_r1_driver -->
<g id="edge2" class="edge">
<title>center&#45;&gt;hub_r1_driver</title>
<path fill="none" stroke="#7f7f7f" d="M655.27,-588.45C700.64,-637.52 773.38,-716.21 805.96,-751.45"/>
</g>
<!-- hub_r1_vehicle -->
<g id="node4" class="node">
<title>hub_r1_vehicle</title>
<path fill="#bdd7ee" stroke="#1f4e79" stroke-width="2" d="M818.73,-834.85C818.73,-834.85 679.73,-834.85 679.73,-834.85 673.73,-834.85 667.73,-828.85 667.73,-822.85 667.73,-822.85 667.73,-810.85 667.73,-810.85 667.73,-804.85 673.73,-798.85 679.73,-798.85 679.73,-798.85 818.73,-798.85 818.73,-798.85 824.73,-798.85 830.73,-804.85 830.73,-810.85 830.73,-810.85 830.73,-822.85 830.73,-822.85 830.73,-828.85 824.73,-834.85 818.73,-834.85"/>
<text text-anchor="middle" x="749.23" y="-819.85" font-family="Arial" font-size="10.00" fill="#1f4e79">Vehicle data</text>
<text text-anchor="middle" x="749.23" y="-808.85" font-family="Arial" font-size="10.00" fill="#1f4e79">(zenID + AISPOV CRV/Pojištění)</text>
</g>
<!-- center&#45;&gt;hub_r1_vehicle -->
<g id="edge3" class="edge">
<title>center&#45;&gt;hub_r1_vehicle</title>
<path fill="none" stroke="#7f7f7f" d="M641.68,-598.04C671.87,-659.44 720.53,-758.45 740.38,-798.83"/>
</g>
<!-- hub_r1_sign -->
<g id="node5" class="node">
<title>hub_r1_sign</title>
<path fill="#bdd7ee" stroke="#1f4e79" stroke-width="2" d="M647.72,-859.98C647.72,-859.98 565.72,-859.98 565.72,-859.98 559.72,-859.98 553.72,-853.98 553.72,-847.98 553.72,-847.98 553.72,-835.98 553.72,-835.98 553.72,-829.98 559.72,-823.98 565.72,-823.98 565.72,-823.98 647.72,-823.98 647.72,-823.98 653.72,-823.98 659.72,-829.98 659.72,-835.98 659.72,-835.98 659.72,-847.98 659.72,-847.98 659.72,-853.98 653.72,-859.98 647.72,-859.98"/>
<text text-anchor="middle" x="606.72" y="-844.98" font-family="Arial" font-size="10.00" fill="#1f4e79">Sign + Complete</text>
<text text-anchor="middle" x="606.72" y="-833.98" font-family="Arial" font-size="10.00" fill="#1f4e79">(SMS&#45;OTP + e&#45;mail)</text>
</g>
<!-- center&#45;&gt;hub_r1_sign -->
<g id="edge4" class="edge">
<title>center&#45;&gt;hub_r1_sign</title>
<path fill="none" stroke="#7f7f7f" d="M614.34,-603.91C612.17,-671.83 608.68,-780.79 607.3,-823.73"/>
</g>
<!-- hub_r1_e2e -->
<g id="node6" class="node">
<title>hub_r1_e2e</title>
<path fill="#bdd7ee" stroke="#1f4e79" stroke-width="2" d="M533.7,-840.8C533.7,-840.8 462.7,-840.8 462.7,-840.8 456.7,-840.8 450.7,-834.8 450.7,-828.8 450.7,-828.8 450.7,-816.8 450.7,-816.8 450.7,-810.8 456.7,-804.8 462.7,-804.8 462.7,-804.8 533.7,-804.8 533.7,-804.8 539.7,-804.8 545.7,-810.8 545.7,-816.8 545.7,-816.8 545.7,-828.8 545.7,-828.8 545.7,-834.8 539.7,-840.8 533.7,-840.8"/>
<text text-anchor="middle" x="498.2" y="-820.3" font-family="Arial" font-size="10.00" fill="#1f4e79">E2E orchestration</text>
</g>
<!-- center&#45;&gt;hub_r1_e2e -->
<g id="edge5" class="edge">
<title>center&#45;&gt;hub_r1_e2e</title>
<path fill="none" stroke="#7f7f7f" d="M593.58,-599.18C566.75,-662.09 523.44,-763.63 505.93,-804.7"/>
</g>
<!-- hub_r1_failures -->
<g id="node7" class="node">
<title>hub_r1_failures</title>
<path fill="#bdd7ee" stroke="#1f4e79" stroke-width="2" d="M444.54,-788.95C444.54,-788.95 380.54,-788.95 380.54,-788.95 374.54,-788.95 368.54,-782.95 368.54,-776.95 368.54,-776.95 368.54,-764.95 368.54,-764.95 368.54,-758.95 374.54,-752.95 380.54,-752.95 380.54,-752.95 444.54,-752.95 444.54,-752.95 450.54,-752.95 456.54,-758.95 456.54,-764.95 456.54,-764.95 456.54,-776.95 456.54,-776.95 456.54,-782.95 450.54,-788.95 444.54,-788.95"/>
<text text-anchor="middle" x="412.54" y="-768.45" font-family="Arial" font-size="10.00" fill="#1f4e79">Failure envelope</text>
</g>
<!-- center&#45;&gt;hub_r1_failures -->
<g id="edge6" class="edge">
<title>center&#45;&gt;hub_r1_failures</title>
<path fill="none" stroke="#7f7f7f" d="M577.41,-588.98C532.63,-638.4 461.04,-717.42 428.99,-752.8"/>
</g>
<!-- hub_r2 -->
<g id="node8" class="node">
<title>hub_r2</title>
<path fill="#d9d9d9" stroke="#7f7f7f" stroke-width="2" stroke-dasharray="5,2" d="M543.01,-288.6C543.01,-288.6 481.01,-288.6 481.01,-288.6 475.01,-288.6 469.01,-282.6 469.01,-276.6 469.01,-276.6 469.01,-264.6 469.01,-264.6 469.01,-258.6 475.01,-252.6 481.01,-252.6 481.01,-252.6 543.01,-252.6 543.01,-252.6 549.01,-252.6 555.01,-258.6 555.01,-264.6 555.01,-264.6 555.01,-276.6 555.01,-276.6 555.01,-282.6 549.01,-288.6 543.01,-288.6"/>
<text text-anchor="middle" x="512.01" y="-273.6" font-family="Arial" font-size="10.00" fill="#404040">R2 — deferred</text>
<text text-anchor="middle" x="512.01" y="-262.6" font-family="Arial" font-size="10.00" fill="#404040">(11 TestTargets)</text>
</g>
<!-- center&#45;&gt;hub_r2 -->
<g id="edge7" class="edge">
<title>center&#45;&gt;hub_r2</title>
<path fill="none" stroke="#7f7f7f" d="M595.86,-492.38C572.17,-429.73 534.32,-329.6 518.89,-288.8"/>
</g>
<!-- TT_CP_R1_A1 -->
<g id="node9" class="node">
<title>TT_CP_R1_A1</title>
<path fill="#f4b084" stroke="#1f4e79" stroke-width="2" d="M1208.67,-659.77C1208.67,-659.77 1056.67,-659.77 1056.67,-659.77 1050.67,-659.77 1044.67,-653.77 1044.67,-647.77 1044.67,-647.77 1044.67,-628.77 1044.67,-628.77 1044.67,-622.77 1050.67,-616.77 1056.67,-616.77 1056.67,-616.77 1208.67,-616.77 1208.67,-616.77 1214.67,-616.77 1220.67,-622.77 1220.67,-628.77 1220.67,-628.77 1220.67,-647.77 1220.67,-647.77 1220.67,-653.77 1214.67,-659.77 1208.67,-659.77"/>
<text text-anchor="start" x="1102.17" y="-648.77" font-family="Arial" font-weight="bold" font-size="10.00">TT&#45;CP&#45;R1&#45;A1</text>
<text text-anchor="start" x="1052.67" y="-639.57" font-family="Arial" font-size="9.00">Vstupní brána a SMS&#45;PING (screen 01)</text>
<text text-anchor="start" x="1117.67" y="-631.37" font-family="Arial" font-size="8.00" fill="#404040">→ NEW</text>
<text text-anchor="start" x="1124.17" y="-623.37" font-family="Arial" font-size="8.00" fill="#7f7f7f">Pri A</text>
</g>
<!-- hub_r1_auth&#45;&gt;TT_CP_R1_A1 -->
<g id="edge8" class="edge">
<title>hub_r1_auth&#45;&gt;TT_CP_R1_A1</title>
<path fill="none" stroke="#7f7f7f" d="M946.86,-645.02C975.46,-643.98 1011.68,-642.67 1044.52,-641.47"/>
</g>
<!-- TT_CP_R1_A2 -->
<g id="node10" class="node">
<title>TT_CP_R1_A2</title>
<path fill="#f4b084" stroke="#1f4e79" stroke-width="2" d="M1143.8,-832.25C1143.8,-832.25 1001.8,-832.25 1001.8,-832.25 995.8,-832.25 989.8,-826.25 989.8,-820.25 989.8,-820.25 989.8,-801.25 989.8,-801.25 989.8,-795.25 995.8,-789.25 1001.8,-789.25 1001.8,-789.25 1143.8,-789.25 1143.8,-789.25 1149.8,-789.25 1155.8,-795.25 1155.8,-801.25 1155.8,-801.25 1155.8,-820.25 1155.8,-820.25 1155.8,-826.25 1149.8,-832.25 1143.8,-832.25"/>
<text text-anchor="start" x="1042.3" y="-821.25" font-family="Arial" font-weight="bold" font-size="10.00">TT&#45;CP&#45;R1&#45;A2</text>
<text text-anchor="start" x="997.8" y="-812.05" font-family="Arial" font-size="9.00">Ověření telefonních čísel (screen 02)</text>
<text text-anchor="start" x="1018.3" y="-803.85" font-family="Arial" font-size="8.00" fill="#404040">→ IN_PROGRESS_DRIVERS</text>
<text text-anchor="start" x="1064.3" y="-795.85" font-family="Arial" font-size="8.00" fill="#7f7f7f">Pri A</text>
</g>
<!-- hub_r1_auth&#45;&gt;TT_CP_R1_A2 -->
<g id="edge9" class="edge">
<title>hub_r1_auth&#45;&gt;TT_CP_R1_A2</title>
<path fill="none" stroke="#7f7f7f" d="M914.36,-665.08C947.44,-695.49 1013.87,-756.57 1049.29,-789.14"/>
</g>
<!-- TT_CP_R1_B -->
<g id="node11" class="node">
<title>TT_CP_R1_B</title>
<path fill="#f4b084" stroke="#1f4e79" stroke-width="2" d="M1033.83,-972.64C1033.83,-972.64 879.83,-972.64 879.83,-972.64 873.83,-972.64 867.83,-966.64 867.83,-960.64 867.83,-960.64 867.83,-941.64 867.83,-941.64 867.83,-935.64 873.83,-929.64 879.83,-929.64 879.83,-929.64 1033.83,-929.64 1033.83,-929.64 1039.83,-929.64 1045.83,-935.64 1045.83,-941.64 1045.83,-941.64 1045.83,-960.64 1045.83,-960.64 1045.83,-966.64 1039.83,-972.64 1033.83,-972.64"/>
<text text-anchor="start" x="929.33" y="-961.64" font-family="Arial" font-weight="bold" font-size="10.00">TT&#45;CP&#45;R1&#45;B</text>
<text text-anchor="start" x="875.83" y="-952.44" font-family="Arial" font-size="9.00">Načtení dat řidiče (zenID + AISPOV; s…</text>
<text text-anchor="start" x="902.33" y="-944.24" font-family="Arial" font-size="8.00" fill="#404040">→ IN_PROGRESS_DRIVERS</text>
<text text-anchor="start" x="948.33" y="-936.24" font-family="Arial" font-size="8.00" fill="#7f7f7f">Pri A</text>
</g>
<!-- hub_r1_driver&#45;&gt;TT_CP_R1_B -->
<g id="edge10" class="edge">
<title>hub_r1_driver&#45;&gt;TT_CP_R1_B</title>
<path fill="none" stroke="#7f7f7f" d="M836.03,-787.61C860.88,-821.25 914.13,-893.34 940.85,-929.51"/>
</g>
<!-- TT_CP_R1_C -->
<g id="node12" class="node">
<title>TT_CP_R1_C</title>
<path fill="#f4b084" stroke="#1f4e79" stroke-width="2" d="M877.81,-1064.07C877.81,-1064.07 714.81,-1064.07 714.81,-1064.07 708.81,-1064.07 702.81,-1058.07 702.81,-1052.07 702.81,-1052.07 702.81,-1033.07 702.81,-1033.07 702.81,-1027.07 708.81,-1021.07 714.81,-1021.07 714.81,-1021.07 877.81,-1021.07 877.81,-1021.07 883.81,-1021.07 889.81,-1027.07 889.81,-1033.07 889.81,-1033.07 889.81,-1052.07 889.81,-1052.07 889.81,-1058.07 883.81,-1064.07 877.81,-1064.07"/>
<text text-anchor="start" x="768.81" y="-1053.07" font-family="Arial" font-weight="bold" font-size="10.00">TT&#45;CP&#45;R1&#45;C</text>
<text text-anchor="start" x="710.81" y="-1043.87" font-family="Arial" font-size="9.00">SPZ + údaje o vozidle (zenID + AISPOV…</text>
<text text-anchor="start" x="724.31" y="-1035.67" font-family="Arial" font-size="8.00" fill="#404040">→ IN_PROGRESS_CIRCUMSTANCES</text>
<text text-anchor="start" x="787.81" y="-1027.67" font-family="Arial" font-size="8.00" fill="#7f7f7f">Pri A</text>
</g>
<!-- hub_r1_vehicle&#45;&gt;TT_CP_R1_C -->
<g id="edge11" class="edge">
<title>hub_r1_vehicle&#45;&gt;TT_CP_R1_C</title>
<path fill="none" stroke="#7f7f7f" d="M753.01,-834.94C761.58,-876.05 782.51,-976.38 791.77,-1020.8"/>
</g>
<!-- TT_CP_R1_D -->
<g id="node13" class="node">
<title>TT_CP_R1_D</title>
<path fill="#f4b084" stroke="#1f4e79" stroke-width="2" d="M682.67,-1097.05C682.67,-1097.05 535.67,-1097.05 535.67,-1097.05 529.67,-1097.05 523.67,-1091.05 523.67,-1085.05 523.67,-1085.05 523.67,-1066.05 523.67,-1066.05 523.67,-1060.05 529.67,-1054.05 535.67,-1054.05 535.67,-1054.05 682.67,-1054.05 682.67,-1054.05 688.67,-1054.05 694.67,-1060.05 694.67,-1066.05 694.67,-1066.05 694.67,-1085.05 694.67,-1085.05 694.67,-1091.05 688.67,-1097.05 682.67,-1097.05"/>
<text text-anchor="start" x="581.67" y="-1086.05" font-family="Arial" font-weight="bold" font-size="10.00">TT&#45;CP&#45;R1&#45;D</text>
<text text-anchor="start" x="531.67" y="-1076.85" font-family="Arial" font-size="9.00">Okolnosti, datum, místo, viník, souhr…</text>
<text text-anchor="start" x="584.67" y="-1068.65" font-family="Arial" font-size="8.00" fill="#404040">→ FINISHED</text>
<text text-anchor="start" x="600.67" y="-1060.65" font-family="Arial" font-size="8.00" fill="#7f7f7f">Pri A</text>
</g>
<!-- hub_r1_sign&#45;&gt;TT_CP_R1_D -->
<g id="edge12" class="edge">
<title>hub_r1_sign&#45;&gt;TT_CP_R1_D</title>
<path fill="none" stroke="#7f7f7f" d="M606.91,-860.31C607.36,-902.89 608.46,-1008.36 608.94,-1053.97"/>
</g>
<!-- TT_CP_R1_E -->
<g id="node14" class="node">
<title>TT_CP_R1_E</title>
<path fill="#f4b084" stroke="#1f4e79" stroke-width="2" d="M495.78,-1064.67C495.78,-1064.67 355.78,-1064.67 355.78,-1064.67 349.78,-1064.67 343.78,-1058.67 343.78,-1052.67 343.78,-1052.67 343.78,-1033.67 343.78,-1033.67 343.78,-1027.67 349.78,-1021.67 355.78,-1021.67 355.78,-1021.67 495.78,-1021.67 495.78,-1021.67 501.78,-1021.67 507.78,-1027.67 507.78,-1033.67 507.78,-1033.67 507.78,-1052.67 507.78,-1052.67 507.78,-1058.67 501.78,-1064.67 495.78,-1064.67"/>
<text text-anchor="start" x="398.28" y="-1053.67" font-family="Arial" font-weight="bold" font-size="10.00">TT&#45;CP&#45;R1&#45;E</text>
<text text-anchor="start" x="351.78" y="-1044.47" font-family="Arial" font-size="9.00">End&#45;to&#45;end orchestrace (cross&#45;area)</text>
<text text-anchor="start" x="401.28" y="-1036.27" font-family="Arial" font-size="8.00" fill="#404040">→ FINISHED</text>
<text text-anchor="start" x="417.28" y="-1028.27" font-family="Arial" font-size="8.00" fill="#7f7f7f">Pri A</text>
</g>
<!-- hub_r1_e2e&#45;&gt;TT_CP_R1_E -->
<g id="edge13" class="edge">
<title>hub_r1_e2e&#45;&gt;TT_CP_R1_E</title>
<path fill="none" stroke="#7f7f7f" d="M492.28,-840.84C479.07,-881.03 447.25,-977.83 432.96,-1021.34"/>
</g>
<!-- TT_CP_R1_F -->
<g id="node15" class="node">
<title>TT_CP_R1_F</title>
<path fill="#f4b084" stroke="#1f4e79" stroke-width="2" d="M339.55,-972.74C339.55,-972.74 196.55,-972.74 196.55,-972.74 190.55,-972.74 184.55,-966.74 184.55,-960.74 184.55,-960.74 184.55,-941.74 184.55,-941.74 184.55,-935.74 190.55,-929.74 196.55,-929.74 196.55,-929.74 339.55,-929.74 339.55,-929.74 345.55,-929.74 351.55,-935.74 351.55,-941.74 351.55,-941.74 351.55,-960.74 351.55,-960.74 351.55,-966.74 345.55,-972.74 339.55,-972.74"/>
<text text-anchor="start" x="241.05" y="-961.74" font-family="Arial" font-weight="bold" font-size="10.00">TT&#45;CP&#45;R1&#45;F</text>
<text text-anchor="start" x="192.55" y="-952.54" font-family="Arial" font-size="9.00">Obálka chyb a ukončení (cross&#45;area)</text>
<text text-anchor="start" x="213.55" y="-944.34" font-family="Arial" font-size="8.00" fill="#404040">→ ERROR (with sub&#45;reasons)</text>
<text text-anchor="start" x="259.55" y="-936.34" font-family="Arial" font-size="8.00" fill="#7f7f7f">Pri A</text>
</g>
<!-- hub_r1_failures&#45;&gt;TT_CP_R1_F -->
<g id="edge14" class="edge">
<title>hub_r1_failures&#45;&gt;TT_CP_R1_F</title>
<path fill="none" stroke="#7f7f7f" d="M397.89,-789.23C371.06,-822.71 314.15,-893.73 285.42,-929.58"/>
</g>
<!-- TT_CP_R2_COOKIE -->
<g id="node16" class="node">
<title>TT_CP_R2_COOKIE</title>
<path fill="#c6e0b4" stroke="#7f7f7f" stroke-width="2" stroke-dasharray="5,2" d="M199.8,-828.75C199.8,-828.75 106.8,-828.75 106.8,-828.75 100.8,-828.75 94.8,-822.75 94.8,-816.75 94.8,-816.75 94.8,-804.75 94.8,-804.75 94.8,-798.75 100.8,-792.75 106.8,-792.75 106.8,-792.75 199.8,-792.75 199.8,-792.75 205.8,-792.75 211.8,-798.75 211.8,-804.75 211.8,-804.75 211.8,-816.75 211.8,-816.75 211.8,-822.75 205.8,-828.75 199.8,-828.75"/>
<text text-anchor="start" x="109.3" y="-817.25" font-family="Arial" font-weight="bold" font-size="10.00">TT&#45;CP&#45;R2&#45;COOKIE</text>
<text text-anchor="start" x="102.8" y="-808.05" font-family="Arial" font-size="9.00">Cookies banner first&#45;visit</text>
<text text-anchor="start" x="143.8" y="-799.85" font-family="Arial" font-size="8.00" fill="#7f7f7f">Pri C</text>
</g>
<!-- hub_r2&#45;&gt;TT_CP_R2_COOKIE -->
<g id="edge15" class="edge">
<title>hub_r2&#45;&gt;TT_CP_R2_COOKIE</title>
<path fill="none" stroke="#7f7f7f" d="M499.87,-288.88C444.92,-371.62 219.82,-710.58 165.26,-792.75"/>
</g>
<!-- TT_CP_R2_OUTAGE_WARN -->
<g id="node17" class="node">
<title>TT_CP_R2_OUTAGE_WARN</title>
<path fill="#c6e0b4" stroke="#7f7f7f" stroke-width="2" stroke-dasharray="5,2" d="M151.18,-656.27C151.18,-656.27 31.18,-656.27 31.18,-656.27 25.18,-656.27 19.18,-650.27 19.18,-644.27 19.18,-644.27 19.18,-632.27 19.18,-632.27 19.18,-626.27 25.18,-620.27 31.18,-620.27 31.18,-620.27 151.18,-620.27 151.18,-620.27 157.18,-620.27 163.18,-626.27 163.18,-632.27 163.18,-632.27 163.18,-644.27 163.18,-644.27 163.18,-650.27 157.18,-656.27 151.18,-656.27"/>
<text text-anchor="start" x="29.18" y="-644.77" font-family="Arial" font-weight="bold" font-size="10.00">TT&#45;CP&#45;R2&#45;OUTAGE&#45;WARN</text>
<text text-anchor="start" x="27.18" y="-635.57" font-family="Arial" font-size="9.00">Plánovaná odstávka (žlutý box)</text>
<text text-anchor="start" x="81.68" y="-627.37" font-family="Arial" font-size="8.00" fill="#7f7f7f">Pri C</text>
</g>
<!-- hub_r2&#45;&gt;TT_CP_R2_OUTAGE_WARN -->
<g id="edge16" class="edge">
<title>hub_r2&#45;&gt;TT_CP_R2_OUTAGE_WARN</title>
<path fill="none" stroke="#7f7f7f" d="M491.14,-288.83C419.49,-351.43 184.01,-557.16 112.17,-619.93"/>
</g>
<!-- TT_CP_R2_SHARED -->
<g id="node18" class="node">
<title>TT_CP_R2_SHARED</title>
<path fill="#c6e0b4" stroke="#7f7f7f" stroke-width="2" stroke-dasharray="5,2" d="M171,-472.73C171,-472.73 12,-472.73 12,-472.73 6,-472.73 0,-466.73 0,-460.73 0,-460.73 0,-448.73 0,-448.73 0,-442.73 6,-436.73 12,-436.73 12,-436.73 171,-436.73 171,-436.73 177,-436.73 183,-442.73 183,-448.73 183,-448.73 183,-460.73 183,-460.73 183,-466.73 177,-472.73 171,-472.73"/>
<text text-anchor="start" x="46" y="-461.23" font-family="Arial" font-weight="bold" font-size="10.00">TT&#45;CP&#45;R2&#45;SHARED</text>
<text text-anchor="start" x="8" y="-452.03" font-family="Arial" font-size="9.00">Sdílený záznam (link/QR pro účastníka…</text>
<text text-anchor="start" x="82" y="-443.83" font-family="Arial" font-size="8.00" fill="#7f7f7f">Pri C</text>
</g>
<!-- hub_r2&#45;&gt;TT_CP_R2_SHARED -->
<g id="edge17" class="edge">
<title>hub_r2&#45;&gt;TT_CP_R2_SHARED</title>
<path fill="none" stroke="#7f7f7f" d="M470.54,-288.75C389.94,-324.05 213.01,-401.52 132.66,-436.7"/>
</g>
<!-- TT_CP_R2_MENU -->
<g id="node19" class="node">
<title>TT_CP_R2_MENU</title>
<path fill="#c6e0b4" stroke="#7f7f7f" stroke-width="2" stroke-dasharray="5,2" d="M219.93,-300.25C219.93,-300.25 88.93,-300.25 88.93,-300.25 82.93,-300.25 76.93,-294.25 76.93,-288.25 76.93,-288.25 76.93,-276.25 76.93,-276.25 76.93,-270.25 82.93,-264.25 88.93,-264.25 88.93,-264.25 219.93,-264.25 219.93,-264.25 225.93,-264.25 231.93,-270.25 231.93,-276.25 231.93,-276.25 231.93,-288.25 231.93,-288.25 231.93,-294.25 225.93,-300.25 219.93,-300.25"/>
<text text-anchor="start" x="115.43" y="-288.75" font-family="Arial" font-weight="bold" font-size="10.00">TT&#45;CP&#45;R2&#45;MENU</text>
<text text-anchor="start" x="84.93" y="-279.55" font-family="Arial" font-size="9.00">In&#45;app menu (sidebar/hamburger)</text>
<text text-anchor="start" x="144.93" y="-271.35" font-family="Arial" font-size="8.00" fill="#7f7f7f">Pri C</text>
</g>
<!-- hub_r2&#45;&gt;TT_CP_R2_MENU -->
<g id="edge18" class="edge">
<title>hub_r2&#45;&gt;TT_CP_R2_MENU</title>
<path fill="none" stroke="#7f7f7f" d="M468.88,-272C410.27,-273.91 304.49,-277.36 231.93,-279.72"/>
</g>
<!-- TT_CP_R2_FAQ -->
<g id="node20" class="node">
<title>TT_CP_R2_FAQ</title>
<path fill="#c6e0b4" stroke="#7f7f7f" stroke-width="2" stroke-dasharray="5,2" d="M323.42,-159.65C323.42,-159.65 221.42,-159.65 221.42,-159.65 215.42,-159.65 209.42,-153.65 209.42,-147.65 209.42,-147.65 209.42,-135.65 209.42,-135.65 209.42,-129.65 215.42,-123.65 221.42,-123.65 221.42,-123.65 323.42,-123.65 323.42,-123.65 329.42,-123.65 335.42,-129.65 335.42,-135.65 335.42,-135.65 335.42,-147.65 335.42,-147.65 335.42,-153.65 329.42,-159.65 323.42,-159.65"/>
<text text-anchor="start" x="238.42" y="-148.15" font-family="Arial" font-weight="bold" font-size="10.00">TT&#45;CP&#45;R2&#45;FAQ</text>
<text text-anchor="start" x="217.42" y="-138.95" font-family="Arial" font-size="9.00">FAQ — taxonomie a obsah</text>
<text text-anchor="start" x="262.92" y="-130.75" font-family="Arial" font-size="8.00" fill="#7f7f7f">Pri C</text>
</g>
<!-- hub_r2&#45;&gt;TT_CP_R2_FAQ -->
<g id="edge19" class="edge">
<title>hub_r2&#45;&gt;TT_CP_R2_FAQ</title>
<path fill="none" stroke="#7f7f7f" d="M478.44,-252.53C432.85,-227.99 351.82,-184.38 306.14,-159.8"/>
</g>
<!-- TT_CP_R2_LANDING -->
<g id="node21" class="node">
<title>TT_CP_R2_LANDING</title>
<path fill="#c6e0b4" stroke="#7f7f7f" stroke-width="2" stroke-dasharray="5,2" d="M487.87,-67.87C487.87,-67.87 374.87,-67.87 374.87,-67.87 368.87,-67.87 362.87,-61.87 362.87,-55.87 362.87,-55.87 362.87,-43.87 362.87,-43.87 362.87,-37.87 368.87,-31.87 374.87,-31.87 374.87,-31.87 487.87,-31.87 487.87,-31.87 493.87,-31.87 499.87,-37.87 499.87,-43.87 499.87,-43.87 499.87,-55.87 499.87,-55.87 499.87,-61.87 493.87,-67.87 487.87,-67.87"/>
<text text-anchor="start" x="384.37" y="-56.37" font-family="Arial" font-weight="bold" font-size="10.00">TT&#45;CP&#45;R2&#45;LANDING</text>
<text text-anchor="start" x="370.87" y="-47.17" font-family="Arial" font-size="9.00">Landing — marketing surface</text>
<text text-anchor="start" x="421.87" y="-38.97" font-family="Arial" font-size="8.00" fill="#7f7f7f">Pri C</text>
</g>
<!-- hub_r2&#45;&gt;TT_CP_R2_LANDING -->
<g id="edge20" class="edge">
<title>hub_r2&#45;&gt;TT_CP_R2_LANDING</title>
<path fill="none" stroke="#7f7f7f" d="M505.41,-252.53C490.25,-211.04 453.09,-109.31 437.95,-67.88"/>
</g>
<!-- TT_CP_R2_HEADER -->
<g id="node22" class="node">
<title>TT_CP_R2_HEADER</title>
<path fill="#d9d9d9" stroke="#7f7f7f" stroke-width="2" stroke-dasharray="5,2" d="M673.13,-36C673.13,-36 551.13,-36 551.13,-36 545.13,-36 539.13,-30 539.13,-24 539.13,-24 539.13,-12 539.13,-12 539.13,-6 545.13,0 551.13,0 551.13,0 673.13,0 673.13,0 679.13,0 685.13,-6 685.13,-12 685.13,-12 685.13,-24 685.13,-24 685.13,-30 679.13,-36 673.13,-36"/>
<text text-anchor="start" x="566.63" y="-24.5" font-family="Arial" font-weight="bold" font-size="10.00">TT&#45;CP&#45;R2&#45;HEADER</text>
<text text-anchor="start" x="547.13" y="-15.3" font-family="Arial" font-size="9.00">Záhlaví / hamburger cross&#45;page</text>
<text text-anchor="start" x="602.63" y="-7.1" font-family="Arial" font-size="8.00" fill="#7f7f7f">Pri D</text>
</g>
<!-- hub_r2&#45;&gt;TT_CP_R2_HEADER -->
<g id="edge21" class="edge">
<title>hub_r2&#45;&gt;TT_CP_R2_HEADER</title>
<path fill="none" stroke="#7f7f7f" d="M519.21,-252.43C537.68,-205.82 586.59,-82.43 605,-36"/>
</g>
<!-- TT_CP_R2_GDPR -->
<g id="node23" class="node">
<title>TT_CP_R2_GDPR</title>
<path fill="#d9d9d9" stroke="#7f7f7f" stroke-width="2" stroke-dasharray="5,2" d="M850.39,-67.87C850.39,-67.87 735.39,-67.87 735.39,-67.87 729.39,-67.87 723.39,-61.87 723.39,-55.87 723.39,-55.87 723.39,-43.87 723.39,-43.87 723.39,-37.87 729.39,-31.87 735.39,-31.87 735.39,-31.87 850.39,-31.87 850.39,-31.87 856.39,-31.87 862.39,-37.87 862.39,-43.87 862.39,-43.87 862.39,-55.87 862.39,-55.87 862.39,-61.87 856.39,-67.87 850.39,-67.87"/>
<text text-anchor="start" x="754.39" y="-56.37" font-family="Arial" font-weight="bold" font-size="10.00">TT&#45;CP&#45;R2&#45;GDPR</text>
<text text-anchor="start" x="731.39" y="-47.17" font-family="Arial" font-size="9.00">GDPR / personal&#45;data stránka</text>
<text text-anchor="start" x="783.39" y="-38.97" font-family="Arial" font-size="8.00" fill="#7f7f7f">Pri D</text>
</g>
<!-- hub_r2&#45;&gt;TT_CP_R2_GDPR -->
<g id="edge22" class="edge">
<title>hub_r2&#45;&gt;TT_CP_R2_GDPR</title>
<path fill="none" stroke="#7f7f7f" d="M535,-252.53C587.8,-211.04 717.25,-109.31 769.98,-67.88"/>
</g>
<!-- TT_CP_R2_WITNESS -->
<g id="node24" class="node">
<title>TT_CP_R2_WITNESS</title>
<path fill="#c6e0b4" stroke="#7f7f7f" stroke-width="2" stroke-dasharray="5,2" d="M1002.96,-159.65C1002.96,-159.65 900.96,-159.65 900.96,-159.65 894.96,-159.65 888.96,-153.65 888.96,-147.65 888.96,-147.65 888.96,-135.65 888.96,-135.65 888.96,-129.65 894.96,-123.65 900.96,-123.65 900.96,-123.65 1002.96,-123.65 1002.96,-123.65 1008.96,-123.65 1014.96,-129.65 1014.96,-135.65 1014.96,-135.65 1014.96,-147.65 1014.96,-147.65 1014.96,-153.65 1008.96,-159.65 1002.96,-159.65"/>
<text text-anchor="start" x="904.96" y="-148.15" font-family="Arial" font-weight="bold" font-size="10.00">TT&#45;CP&#45;R2&#45;WITNESS</text>
<text text-anchor="start" x="896.96" y="-138.95" font-family="Arial" font-size="9.00">Svědci nehody (screen 07)</text>
<text text-anchor="start" x="942.46" y="-130.75" font-family="Arial" font-size="8.00" fill="#7f7f7f">Pri C</text>
</g>
<!-- hub_r2&#45;&gt;TT_CP_R2_WITNESS -->
<g id="edge23" class="edge">
<title>hub_r2&#45;&gt;TT_CP_R2_WITNESS</title>
<path fill="none" stroke="#7f7f7f" d="M555.4,-257.88C633.98,-234.85 800.07,-186.16 890.37,-159.7"/>
</g>
<!-- TT_CP_R2_DEMO_RELAX -->
<g id="node25" class="node">
<title>TT_CP_R2_DEMO_RELAX</title>
<path fill="#ffd966" stroke="#7f7f7f" stroke-width="2" stroke-dasharray="5,2" d="M1132.45,-300.25C1132.45,-300.25 1007.45,-300.25 1007.45,-300.25 1001.45,-300.25 995.45,-294.25 995.45,-288.25 995.45,-288.25 995.45,-276.25 995.45,-276.25 995.45,-270.25 1001.45,-264.25 1007.45,-264.25 1007.45,-264.25 1132.45,-264.25 1132.45,-264.25 1138.45,-264.25 1144.45,-270.25 1144.45,-276.25 1144.45,-276.25 1144.45,-288.25 1144.45,-288.25 1144.45,-294.25 1138.45,-300.25 1132.45,-300.25"/>
<text text-anchor="start" x="1012.45" y="-288.75" font-family="Arial" font-weight="bold" font-size="10.00">TT&#45;CP&#45;R2&#45;DEMO&#45;RELAX</text>
<text text-anchor="start" x="1003.45" y="-279.55" font-family="Arial" font-size="9.00">DEMO env redukovaná validace</text>
<text text-anchor="start" x="1060.95" y="-271.35" font-family="Arial" font-size="8.00" fill="#7f7f7f">Pri B</text>
</g>
<!-- hub_r2&#45;&gt;TT_CP_R2_DEMO_RELAX -->
<g id="edge24" class="edge">
<title>hub_r2&#45;&gt;TT_CP_R2_DEMO_RELAX</title>
<path fill="none" stroke="#7f7f7f" d="M555.33,-271.5C650.06,-273.48 876.63,-278.21 995.01,-280.68"/>
</g>
<!-- TT_CP_R2_VEHICLE_N -->
<g id="node26" class="node">
<title>TT_CP_R2_VEHICLE_N</title>
<path fill="#f4b084" stroke="#7f7f7f" stroke-width="2" stroke-dasharray="5,2" d="M1182.62,-472.73C1182.62,-472.73 1082.62,-472.73 1082.62,-472.73 1076.62,-472.73 1070.62,-466.73 1070.62,-460.73 1070.62,-460.73 1070.62,-448.73 1070.62,-448.73 1070.62,-442.73 1076.62,-436.73 1082.62,-436.73 1082.62,-436.73 1182.62,-436.73 1182.62,-436.73 1188.62,-436.73 1194.62,-442.73 1194.62,-448.73 1194.62,-448.73 1194.62,-460.73 1194.62,-460.73 1194.62,-466.73 1188.62,-472.73 1182.62,-472.73"/>
<text text-anchor="start" x="1081.12" y="-461.23" font-family="Arial" font-weight="bold" font-size="10.00">TT&#45;CP&#45;R2&#45;VEHICLE&#45;N</text>
<text text-anchor="start" x="1078.62" y="-452.03" font-family="Arial" font-size="9.00">Vozidlo N (screens 10–11)</text>
<text text-anchor="start" x="1124.12" y="-443.83" font-family="Arial" font-size="8.00" fill="#7f7f7f">Pri A</text>
</g>
<!-- hub_r2&#45;&gt;TT_CP_R2_VEHICLE_N -->
<g id="edge25" class="edge">
<title>hub_r2&#45;&gt;TT_CP_R2_VEHICLE_N</title>
<path fill="none" stroke="#7f7f7f" d="M555.16,-283.4C663.33,-315.49 946.32,-399.45 1071.53,-436.6"/>
</g>
</g>
</svg>
