<?xml version="1.0" encoding="UTF-8" standalone="no"?>
<!DOCTYPE svg PUBLIC "-//W3C//DTD SVG 1.1//EN"
 "http://www.w3.org/Graphics/SVG/1.1/DTD/svg11.dtd">
<!-- Generated by graphviz version 2.43.0 (0)
 -->
<!-- Title: TC Pages: 1 -->
<svg width="1513pt" height="1386pt"
 viewBox="0.00 0.00 1513.01 1385.90" xmlns="http://www.w3.org/2000/svg" xmlns:xlink="http://www.w3.org/1999/xlink">
<g id="graph0" class="graph" transform="scale(1 1) rotate(0) translate(4 1381.9)">
<title>TC</title>
<polygon fill="white" stroke="transparent" points="-4,4 -4,-1381.9 1509.01,-1381.9 1509.01,4 -4,4"/>
<text text-anchor="start" x="646.01" y="-1366.9" font-family="Arial" font-weight="bold" font-size="10.00">Bouračka — TestCases — automation priority</text>
<text text-anchor="start" x="458.01" y="-1357.7" font-family="Arial" font-size="9.00">24 R1 TestCases · colour = priority (A=red — automate first; B=yellow — next; C=green — later) · shape = type (○ happy · ⬡ failure · □ regression)</text>
<!-- center -->
<g id="node1" class="node">
<title>center</title>
<ellipse fill="#1f4e79" stroke="black" stroke-width="1.5" cx="753.48" cy="-667.09" rx="57.5" ry="57.5"/>
<text text-anchor="start" x="724.98" y="-669.89" font-family="Arial" font-weight="bold" font-size="9.00" fill="white">Bouračka R1</text>
<text text-anchor="start" x="712.98" y="-660.89" font-family="Arial" font-size="9.00" fill="white">automation backlog</text>
</g>
<!-- TT_CP_R1_A1_hub -->
<g id="node2" class="node">
<title>TT_CP_R1_A1_hub</title>
<path fill="#bdd7ee" stroke="#1f4e79" stroke-width="2" d="M1148.83,-778.35C1148.83,-778.35 1023.83,-778.35 1023.83,-778.35 1017.83,-778.35 1011.83,-772.35 1011.83,-766.35 1011.83,-766.35 1011.83,-754.35 1011.83,-754.35 1011.83,-748.35 1017.83,-742.35 1023.83,-742.35 1023.83,-742.35 1148.83,-742.35 1148.83,-742.35 1154.83,-742.35 1160.83,-748.35 1160.83,-754.35 1160.83,-754.35 1160.83,-766.35 1160.83,-766.35 1160.83,-772.35 1154.83,-778.35 1148.83,-778.35"/>
<text text-anchor="start" x="1057.83" y="-762.65" font-family="Arial" font-weight="bold" font-size="9.00">TT&#45;CP&#45;R1&#45;A1</text>
<text text-anchor="start" x="1019.83" y="-754.45" font-family="Arial" font-size="8.00">Vstupní brána a SMS&#45;PING (scree…</text>
</g>
<!-- center&#45;&gt;TT_CP_R1_A1_hub -->
<g id="edge1" class="edge">
<title>center&#45;&gt;TT_CP_R1_A1_hub</title>
<path fill="none" stroke="#7f7f7f" d="M809.19,-682.7C867.86,-699.14 960.11,-724.99 1021.88,-742.29"/>
</g>
<!-- TT_CP_R1_A2_hub -->
<g id="node3" class="node">
<title>TT_CP_R1_A2_hub</title>
<path fill="#bdd7ee" stroke="#1f4e79" stroke-width="2" d="M925.61,-1010.39C925.61,-1010.39 816.61,-1010.39 816.61,-1010.39 810.61,-1010.39 804.61,-1004.39 804.61,-998.39 804.61,-998.39 804.61,-986.39 804.61,-986.39 804.61,-980.39 810.61,-974.39 816.61,-974.39 816.61,-974.39 925.61,-974.39 925.61,-974.39 931.61,-974.39 937.61,-980.39 937.61,-986.39 937.61,-986.39 937.61,-998.39 937.61,-998.39 937.61,-1004.39 931.61,-1010.39 925.61,-1010.39"/>
<text text-anchor="start" x="842.61" y="-994.69" font-family="Arial" font-weight="bold" font-size="9.00">TT&#45;CP&#45;R1&#45;A2</text>
<text text-anchor="start" x="812.61" y="-986.49" font-family="Arial" font-size="8.00">Ověření telefonních čísel (scre…</text>
</g>
<!-- center&#45;&gt;TT_CP_R1_A2_hub -->
<g id="edge2" class="edge">
<title>center&#45;&gt;TT_CP_R1_A2_hub</title>
<path fill="none" stroke="#7f7f7f" d="M773.04,-721.17C800.02,-795.79 847.28,-926.5 864.56,-974.26"/>
</g>
<!-- TT_CP_R1_B_hub -->
<g id="node4" class="node">
<title>TT_CP_R1_B_hub</title>
<path fill="#bdd7ee" stroke="#1f4e79" stroke-width="2" d="M539.89,-903.21C539.89,-903.21 429.89,-903.21 429.89,-903.21 423.89,-903.21 417.89,-897.21 417.89,-891.21 417.89,-891.21 417.89,-879.21 417.89,-879.21 417.89,-873.21 423.89,-867.21 429.89,-867.21 429.89,-867.21 539.89,-867.21 539.89,-867.21 545.89,-867.21 551.89,-873.21 551.89,-879.21 551.89,-879.21 551.89,-891.21 551.89,-891.21 551.89,-897.21 545.89,-903.21 539.89,-903.21"/>
<text text-anchor="start" x="458.89" y="-887.51" font-family="Arial" font-weight="bold" font-size="9.00">TT&#45;CP&#45;R1&#45;B</text>
<text text-anchor="start" x="425.89" y="-879.31" font-family="Arial" font-size="8.00">Načtení dat řidiče (zenID + AIS…</text>
</g>
<!-- center&#45;&gt;TT_CP_R1_B_hub -->
<g id="edge3" class="edge">
<title>center&#45;&gt;TT_CP_R1_B_hub</title>
<path fill="none" stroke="#7f7f7f" d="M708.83,-703.35C650.65,-750.6 551.17,-831.38 507.07,-867.2"/>
</g>
<!-- TT_CP_R1_C_hub -->
<g id="node5" class="node">
<title>TT_CP_R1_C_hub</title>
<path fill="#bdd7ee" stroke="#1f4e79" stroke-width="2" d="M476.13,-591.83C476.13,-591.83 365.13,-591.83 365.13,-591.83 359.13,-591.83 353.13,-585.83 353.13,-579.83 353.13,-579.83 353.13,-567.83 353.13,-567.83 353.13,-561.83 359.13,-555.83 365.13,-555.83 365.13,-555.83 476.13,-555.83 476.13,-555.83 482.13,-555.83 488.13,-561.83 488.13,-567.83 488.13,-567.83 488.13,-579.83 488.13,-579.83 488.13,-585.83 482.13,-591.83 476.13,-591.83"/>
<text text-anchor="start" x="394.63" y="-576.13" font-family="Arial" font-weight="bold" font-size="9.00">TT&#45;CP&#45;R1&#45;C</text>
<text text-anchor="start" x="361.13" y="-567.93" font-family="Arial" font-size="8.00">SPZ + údaje o vozidle (zenID +…</text>
</g>
<!-- center&#45;&gt;TT_CP_R1_C_hub -->
<g id="edge4" class="edge">
<title>center&#45;&gt;TT_CP_R1_C_hub</title>
<path fill="none" stroke="#7f7f7f" d="M697.77,-651.48C639.1,-635.05 546.85,-609.2 485.08,-591.89"/>
</g>
<!-- TT_CP_R1_D_hub -->
<g id="node6" class="node">
<title>TT_CP_R1_D_hub</title>
<path fill="#bdd7ee" stroke="#1f4e79" stroke-width="2" d="M783.56,-340.15C783.56,-340.15 676.56,-340.15 676.56,-340.15 670.56,-340.15 664.56,-334.15 664.56,-328.15 664.56,-328.15 664.56,-316.15 664.56,-316.15 664.56,-310.15 670.56,-304.15 676.56,-304.15 676.56,-304.15 783.56,-304.15 783.56,-304.15 789.56,-304.15 795.56,-310.15 795.56,-316.15 795.56,-316.15 795.56,-328.15 795.56,-328.15 795.56,-334.15 789.56,-340.15 783.56,-340.15"/>
<text text-anchor="start" x="704.06" y="-324.45" font-family="Arial" font-weight="bold" font-size="9.00">TT&#45;CP&#45;R1&#45;D</text>
<text text-anchor="start" x="672.56" y="-316.25" font-family="Arial" font-size="8.00">Okolnosti, datum, místo, viník,…</text>
</g>
<!-- center&#45;&gt;TT_CP_R1_D_hub -->
<g id="edge5" class="edge">
<title>center&#45;&gt;TT_CP_R1_D_hub</title>
<path fill="none" stroke="#7f7f7f" d="M749.56,-609.36C744.14,-529.57 734.66,-389.84 731.29,-340.24"/>
</g>
<!-- TT_CP_R1_E_hub -->
<g id="node7" class="node">
<title>TT_CP_R1_E_hub</title>
<path fill="#bdd7ee" stroke="#1f4e79" stroke-width="2" d="M1080.17,-466.96C1080.17,-466.96 963.17,-466.96 963.17,-466.96 957.17,-466.96 951.17,-460.96 951.17,-454.96 951.17,-454.96 951.17,-442.96 951.17,-442.96 951.17,-436.96 957.17,-430.96 963.17,-430.96 963.17,-430.96 1080.17,-430.96 1080.17,-430.96 1086.17,-430.96 1092.17,-436.96 1092.17,-442.96 1092.17,-442.96 1092.17,-454.96 1092.17,-454.96 1092.17,-460.96 1086.17,-466.96 1080.17,-466.96"/>
<text text-anchor="start" x="996.17" y="-451.26" font-family="Arial" font-weight="bold" font-size="9.00">TT&#45;CP&#45;R1&#45;E</text>
<text text-anchor="start" x="959.17" y="-443.06" font-family="Arial" font-size="8.00">End&#45;to&#45;end orchestrace (cross&#45;a…</text>
</g>
<!-- center&#45;&gt;TT_CP_R1_E_hub -->
<g id="edge6" class="edge">
<title>center&#45;&gt;TT_CP_R1_E_hub</title>
<path fill="none" stroke="#7f7f7f" d="M798.37,-630.58C856.38,-583.4 955.14,-503.07 999.25,-467.2"/>
</g>
<!-- TT_CP_R1_F_hub -->
<g id="node8" class="node">
<title>TT_CP_R1_F_hub</title>
<path fill="#bdd7ee" stroke="#1f4e79" stroke-width="2" d="M1144.83,-591.83C1144.83,-591.83 1027.83,-591.83 1027.83,-591.83 1021.83,-591.83 1015.83,-585.83 1015.83,-579.83 1015.83,-579.83 1015.83,-567.83 1015.83,-567.83 1015.83,-561.83 1021.83,-555.83 1027.83,-555.83 1027.83,-555.83 1144.83,-555.83 1144.83,-555.83 1150.83,-555.83 1156.83,-561.83 1156.83,-567.83 1156.83,-567.83 1156.83,-579.83 1156.83,-579.83 1156.83,-585.83 1150.83,-591.83 1144.83,-591.83"/>
<text text-anchor="start" x="1061.33" y="-576.13" font-family="Arial" font-weight="bold" font-size="9.00">TT&#45;CP&#45;R1&#45;F</text>
<text text-anchor="start" x="1023.83" y="-567.93" font-family="Arial" font-size="8.00">Obálka chyb a ukončení (cross&#45;a…</text>
</g>
<!-- center&#45;&gt;TT_CP_R1_F_hub -->
<g id="edge7" class="edge">
<title>center&#45;&gt;TT_CP_R1_F_hub</title>
<path fill="none" stroke="#7f7f7f" d="M809.19,-651.48C867.86,-635.05 960.11,-609.2 1021.88,-591.89"/>
</g>
<!-- TC_CP_001 -->
<g id="node9" class="node">
<title>TC_CP_001</title>
<ellipse fill="#f4b084" stroke="#1f4e79" stroke-width="1.5" cx="1395.57" cy="-755.35" rx="87.86" ry="27.65"/>
<text text-anchor="start" x="1372.07" y="-764.65" font-family="Arial" font-weight="bold" font-size="9.00">TC&#45;CP&#45;001</text>
<text text-anchor="start" x="1341.57" y="-756.45" font-family="Arial" font-size="8.00">PING SMS Gateway — happy</text>
<text text-anchor="start" x="1382.57" y="-749.25" font-family="Arial" font-size="7.00" fill="#404040">→ NEW</text>
<text text-anchor="start" x="1375.57" y="-742.25" font-family="Arial" font-size="7.00" fill="#7f7f7f">happy · Pri A</text>
</g>
<!-- TT_CP_R1_A1_hub&#45;&gt;TC_CP_001 -->
<g id="edge8" class="edge">
<title>TT_CP_R1_A1_hub&#45;&gt;TC_CP_001</title>
<path fill="none" stroke="#7f7f7f" d="M1161.19,-759.14C1205.43,-758.42 1261.66,-757.51 1307.96,-756.76"/>
</g>
<!-- TC_CP_002 -->
<g id="node10" class="node">
<title>TC_CP_002</title>
<path fill="#f4b084" stroke="#1f4e79" stroke-width="1.5" d="M1470.36,-920.42C1470.36,-920.42 1470.36,-930.19 1470.36,-930.19 1470.36,-935.08 1465.67,-941.33 1460.97,-942.69 1460.97,-942.69 1408.05,-958 1408.05,-958 1403.35,-959.36 1393.76,-960.72 1388.87,-960.72 1388.87,-960.72 1307.02,-960.72 1307.02,-960.72 1302.13,-960.72 1292.54,-959.36 1287.84,-958 1287.84,-958 1234.92,-942.69 1234.92,-942.69 1230.22,-941.33 1225.53,-935.08 1225.53,-930.19 1225.53,-930.19 1225.53,-920.42 1225.53,-920.42 1225.53,-915.53 1230.22,-909.28 1234.92,-907.92 1234.92,-907.92 1287.84,-892.61 1287.84,-892.61 1292.54,-891.25 1302.13,-889.89 1307.02,-889.89 1307.02,-889.89 1388.87,-889.89 1388.87,-889.89 1393.76,-889.89 1403.35,-891.25 1408.05,-892.61 1408.05,-892.61 1460.97,-907.92 1460.97,-907.92 1465.67,-909.28 1470.36,-915.53 1470.36,-920.42"/>
<text text-anchor="start" x="1324.45" y="-938.11" font-family="Arial" font-weight="bold" font-size="9.00">TC&#45;CP&#45;002</text>
<text text-anchor="start" x="1275.95" y="-929.91" font-family="Arial" font-size="8.00">PING SMS Gateway — NOK (Endpage)</text>
<text text-anchor="start" x="1338.45" y="-922.71" font-family="Arial" font-size="7.00" fill="#404040">→ n/a</text>
<text text-anchor="start" x="1329.45" y="-915.71" font-family="Arial" font-size="7.00" fill="#c00000">PING_NOK</text>
<text text-anchor="start" x="1327.95" y="-908.71" font-family="Arial" font-size="7.00" fill="#7f7f7f">failure · Pri A</text>
</g>
<!-- TT_CP_R1_A1_hub&#45;&gt;TC_CP_002 -->
<g id="edge9" class="edge">
<title>TT_CP_R1_A1_hub&#45;&gt;TC_CP_002</title>
<path fill="none" stroke="#7f7f7f" d="M1115.07,-778.48C1157.88,-805.47 1239.15,-856.71 1293.45,-890.95"/>
</g>
<!-- TC_CP_003 -->
<g id="node11" class="node">
<title>TC_CP_003</title>
<ellipse fill="#f4b084" stroke="#1f4e79" stroke-width="1.5" cx="1256.24" cy="-1076.11" rx="113.27" ry="27.65"/>
<text text-anchor="start" x="1232.74" y="-1085.41" font-family="Arial" font-weight="bold" font-size="9.00">TC&#45;CP&#45;003</text>
<text text-anchor="start" x="1184.24" y="-1077.21" font-family="Arial" font-size="8.00">Ověření telefonu — happy oba účastn…</text>
<text text-anchor="start" x="1208.74" y="-1070.01" font-family="Arial" font-size="7.00" fill="#404040">→ IN_PROGRESS_DRIVERS</text>
<text text-anchor="start" x="1236.24" y="-1063.01" font-family="Arial" font-size="7.00" fill="#7f7f7f">happy · Pri A</text>
</g>
<!-- TT_CP_R1_A2_hub&#45;&gt;TC_CP_003 -->
<g id="edge10" class="edge">
<title>TT_CP_R1_A2_hub&#45;&gt;TC_CP_003</title>
<path fill="none" stroke="#7f7f7f" d="M937.76,-1006.87C1002.56,-1020.96 1101.24,-1042.42 1171.57,-1057.71"/>
</g>
<!-- TC_CP_004 -->
<g id="node12" class="node">
<title>TC_CP_004</title>
<path fill="#f4b084" stroke="#1f4e79" stroke-width="1.5" d="M1274.17,-1189.96C1274.17,-1189.96 1274.17,-1199.74 1274.17,-1199.74 1274.17,-1204.63 1269.44,-1210.73 1264.7,-1211.95 1264.7,-1211.95 1202.48,-1227.85 1202.48,-1227.85 1197.74,-1229.06 1188.12,-1230.27 1183.23,-1230.27 1183.23,-1230.27 1088,-1230.27 1088,-1230.27 1083.11,-1230.27 1073.48,-1229.06 1068.74,-1227.85 1068.74,-1227.85 1006.52,-1211.95 1006.52,-1211.95 1001.79,-1210.73 997.05,-1204.63 997.05,-1199.74 997.05,-1199.74 997.05,-1189.96 997.05,-1189.96 997.05,-1185.08 1001.79,-1178.97 1006.52,-1177.76 1006.52,-1177.76 1068.74,-1161.86 1068.74,-1161.86 1073.48,-1160.65 1083.11,-1159.44 1088,-1159.44 1088,-1159.44 1183.23,-1159.44 1183.23,-1159.44 1188.12,-1159.44 1197.74,-1160.65 1202.48,-1161.86 1202.48,-1161.86 1264.7,-1177.76 1264.7,-1177.76 1269.44,-1178.97 1274.17,-1185.08 1274.17,-1189.96"/>
<text text-anchor="start" x="1112.11" y="-1207.65" font-family="Arial" font-weight="bold" font-size="9.00">TC&#45;CP&#45;004</text>
<text text-anchor="start" x="1053.11" y="-1199.45" font-family="Arial" font-size="8.00">OTP — vyčerpání pokusů (SMS_CODE_AT…</text>
<text text-anchor="start" x="1118.11" y="-1192.25" font-family="Arial" font-size="7.00" fill="#404040">→ ERROR</text>
<text text-anchor="start" x="1095.11" y="-1185.25" font-family="Arial" font-size="7.00" fill="#c00000">SMS_CODE_ATTEMPTS</text>
<text text-anchor="start" x="1115.61" y="-1178.25" font-family="Arial" font-size="7.00" fill="#7f7f7f">failure · Pri A</text>
</g>
<!-- TT_CP_R1_A2_hub&#45;&gt;TC_CP_004 -->
<g id="edge11" class="edge">
<title>TT_CP_R1_A2_hub&#45;&gt;TC_CP_004</title>
<path fill="none" stroke="#7f7f7f" d="M895.05,-1010.71C938.92,-1044.29 1032.9,-1116.23 1089.53,-1159.58"/>
</g>
<!-- TC_CP_005 -->
<g id="node13" class="node">
<title>TC_CP_005</title>
<ellipse fill="#f4b084" stroke="#1f4e79" stroke-width="1.5" cx="1003.24" cy="-1271.87" rx="86.03" ry="27.65"/>
<text text-anchor="start" x="979.74" y="-1281.17" font-family="Arial" font-weight="bold" font-size="9.00">TC&#45;CP&#45;005</text>
<text text-anchor="start" x="950.24" y="-1272.97" font-family="Arial" font-size="8.00">SMS&#45;OTP odeslání + ověření</text>
<text text-anchor="start" x="955.74" y="-1265.77" font-family="Arial" font-size="7.00" fill="#404040">→ IN_PROGRESS_DRIVERS</text>
<text text-anchor="start" x="983.24" y="-1258.77" font-family="Arial" font-size="7.00" fill="#7f7f7f">happy · Pri A</text>
</g>
<!-- TT_CP_R1_A2_hub&#45;&gt;TC_CP_005 -->
<g id="edge12" class="edge">
<title>TT_CP_R1_A2_hub&#45;&gt;TC_CP_005</title>
<path fill="none" stroke="#7f7f7f" d="M875.9,-1010.49C893.94,-1058.32 954.94,-1188.05 985.65,-1244.76"/>
</g>
<!-- TT_CP_R1_A2_hub&#45;&gt;TC_CP_005 -->
<g id="edge31" class="edge">
<title>TT_CP_R1_A2_hub&#45;&gt;TC_CP_005</title>
<path fill="none" stroke="#7f7f7f" d="M883.72,-1010.47C910.61,-1058.11 971.76,-1187.1 994.69,-1244.14"/>
</g>
<!-- TC_CP_006 -->
<g id="node14" class="node">
<title>TC_CP_006</title>
<path fill="#ffd966" stroke="#1f4e79" stroke-width="1.5" d="M908.79,-1310.8C908.79,-1310.8 908.79,-1320.58 908.79,-1320.58 908.79,-1325.47 904.11,-1331.79 899.43,-1333.21 899.43,-1333.21 850.09,-1348.25 850.09,-1348.25 845.41,-1349.68 835.85,-1351.11 830.96,-1351.11 830.96,-1351.11 754.27,-1351.11 754.27,-1351.11 749.39,-1351.11 739.82,-1349.68 735.14,-1348.25 735.14,-1348.25 685.8,-1333.21 685.8,-1333.21 681.12,-1331.79 676.44,-1325.47 676.44,-1320.58 676.44,-1320.58 676.44,-1310.8 676.44,-1310.8 676.44,-1305.91 681.12,-1299.6 685.8,-1298.17 685.8,-1298.17 735.14,-1283.13 735.14,-1283.13 739.82,-1281.7 749.39,-1280.28 754.27,-1280.28 754.27,-1280.28 830.96,-1280.28 830.96,-1280.28 835.85,-1280.28 845.41,-1281.7 850.09,-1283.13 850.09,-1283.13 899.43,-1298.17 899.43,-1298.17 904.11,-1299.6 908.79,-1305.91 908.79,-1310.8"/>
<text text-anchor="start" x="769.12" y="-1328.49" font-family="Arial" font-weight="bold" font-size="9.00">TC&#45;CP&#45;006</text>
<text text-anchor="start" x="724.62" y="-1320.29" font-family="Arial" font-size="8.00">SMS Gateway HTTP 422 EX_CHYBA</text>
<text text-anchor="start" x="783.12" y="-1313.09" font-family="Arial" font-size="7.00" fill="#404040">→ n/a</text>
<text text-anchor="start" x="774.12" y="-1306.09" font-family="Arial" font-size="7.00" fill="#c00000">EX_CHYBA</text>
<text text-anchor="start" x="772.12" y="-1299.09" font-family="Arial" font-size="7.00" fill="#7f7f7f">failure · Pri B</text>
</g>
<!-- TT_CP_R1_A2_hub&#45;&gt;TC_CP_006 -->
<g id="edge13" class="edge">
<title>TT_CP_R1_A2_hub&#45;&gt;TC_CP_006</title>
<path fill="none" stroke="#7f7f7f" d="M866.67,-1010.69C854.05,-1062.66 817.86,-1211.72 801.2,-1280.34"/>
</g>
<!-- TC_CP_007 -->
<g id="node15" class="node">
<title>TC_CP_007</title>
<path fill="#f4b084" stroke="#1f4e79" stroke-width="1.5" d="M656.22,-1322.32C656.22,-1322.32 554.22,-1322.32 554.22,-1322.32 548.22,-1322.32 542.22,-1316.32 542.22,-1310.32 542.22,-1310.32 542.22,-1295.32 542.22,-1295.32 542.22,-1289.32 548.22,-1283.32 554.22,-1283.32 554.22,-1283.32 656.22,-1283.32 656.22,-1283.32 662.22,-1283.32 668.22,-1289.32 668.22,-1295.32 668.22,-1295.32 668.22,-1310.32 668.22,-1310.32 668.22,-1316.32 662.22,-1322.32 656.22,-1322.32"/>
<text text-anchor="start" x="581.72" y="-1312.12" font-family="Arial" font-weight="bold" font-size="9.00">TC&#45;CP&#45;007</text>
<text text-anchor="start" x="550.22" y="-1303.92" font-family="Arial" font-size="8.00">OTP retry happy (recoverable)</text>
<text text-anchor="start" x="557.72" y="-1296.72" font-family="Arial" font-size="7.00" fill="#404040">→ IN_PROGRESS_DRIVERS</text>
<text text-anchor="start" x="578.22" y="-1289.72" font-family="Arial" font-size="7.00" fill="#7f7f7f">regression · Pri A</text>
</g>
<!-- TT_CP_R1_A2_hub&#45;&gt;TC_CP_007 -->
<g id="edge14" class="edge">
<title>TT_CP_R1_A2_hub&#45;&gt;TC_CP_007</title>
<path fill="none" stroke="#7f7f7f" d="M855.67,-1010.42C809.11,-1064.77 670.41,-1226.71 622.06,-1283.15"/>
</g>
<!-- TC_CP_008 -->
<g id="node16" class="node">
<title>TC_CP_008</title>
<ellipse fill="#f4b084" stroke="#1f4e79" stroke-width="1.5" cx="452.75" cy="-1242.38" rx="111.03" ry="27.65"/>
<text text-anchor="start" x="429.25" y="-1251.68" font-family="Arial" font-weight="bold" font-size="9.00">TC&#45;CP&#45;008</text>
<text text-anchor="start" x="382.25" y="-1243.48" font-family="Arial" font-size="8.00">zenID + AISPOV ROB — happy auto&#45;fill</text>
<text text-anchor="start" x="405.25" y="-1236.28" font-family="Arial" font-size="7.00" fill="#404040">→ IN_PROGRESS_DRIVERS</text>
<text text-anchor="start" x="432.75" y="-1229.28" font-family="Arial" font-size="7.00" fill="#7f7f7f">happy · Pri A</text>
</g>
<!-- TT_CP_R1_B_hub&#45;&gt;TC_CP_008 -->
<g id="edge15" class="edge">
<title>TT_CP_R1_B_hub&#45;&gt;TC_CP_008</title>
<path fill="none" stroke="#7f7f7f" d="M483.26,-903.41C478,-961.77 461.56,-1144.44 455.25,-1214.57"/>
</g>
<!-- TC_CP_009 -->
<g id="node17" class="node">
<title>TC_CP_009</title>
<path fill="#f4b084" stroke="#1f4e79" stroke-width="1.5" d="M382.6,-1160.26C382.6,-1160.26 239.6,-1160.26 239.6,-1160.26 233.6,-1160.26 227.6,-1154.26 227.6,-1148.26 227.6,-1148.26 227.6,-1133.26 227.6,-1133.26 227.6,-1127.26 233.6,-1121.26 239.6,-1121.26 239.6,-1121.26 382.6,-1121.26 382.6,-1121.26 388.6,-1121.26 394.6,-1127.26 394.6,-1133.26 394.6,-1133.26 394.6,-1148.26 394.6,-1148.26 394.6,-1154.26 388.6,-1160.26 382.6,-1160.26"/>
<text text-anchor="start" x="287.6" y="-1150.06" font-family="Arial" font-weight="bold" font-size="9.00">TC&#45;CP&#45;009</text>
<text text-anchor="start" x="235.6" y="-1141.86" font-family="Arial" font-size="8.00">zenID NOK → manual + AISPOV button…</text>
<text text-anchor="start" x="263.6" y="-1134.66" font-family="Arial" font-size="7.00" fill="#404040">→ IN_PROGRESS_DRIVERS</text>
<text text-anchor="start" x="284.1" y="-1127.66" font-family="Arial" font-size="7.00" fill="#7f7f7f">regression · Pri A</text>
</g>
<!-- TT_CP_R1_B_hub&#45;&gt;TC_CP_009 -->
<g id="edge16" class="edge">
<title>TT_CP_R1_B_hub&#45;&gt;TC_CP_009</title>
<path fill="none" stroke="#7f7f7f" d="M472.4,-903.59C440.64,-950.28 357.07,-1073.17 324.43,-1121.16"/>
</g>
<!-- TC_CP_010 -->
<g id="node18" class="node">
<title>TC_CP_010</title>
<path fill="#f4b084" stroke="#1f4e79" stroke-width="1.5" d="M338.81,-998.96C338.81,-998.96 338.81,-1008.74 338.81,-1008.74 338.81,-1013.63 334.07,-1019.72 329.33,-1020.93 329.33,-1020.93 266.8,-1036.85 266.8,-1036.85 262.07,-1038.05 252.44,-1039.26 247.55,-1039.26 247.55,-1039.26 151.88,-1039.26 151.88,-1039.26 146.99,-1039.26 137.36,-1038.05 132.62,-1036.85 132.62,-1036.85 70.1,-1020.93 70.1,-1020.93 65.36,-1019.72 60.62,-1013.63 60.62,-1008.74 60.62,-1008.74 60.62,-998.96 60.62,-998.96 60.62,-994.07 65.36,-987.97 70.1,-986.76 70.1,-986.76 132.62,-970.84 132.62,-970.84 137.36,-969.64 146.99,-968.43 151.88,-968.43 151.88,-968.43 247.55,-968.43 247.55,-968.43 252.44,-968.43 262.07,-969.64 266.8,-970.84 266.8,-970.84 329.33,-986.76 329.33,-986.76 334.07,-987.97 338.81,-994.07 338.81,-998.96"/>
<text text-anchor="start" x="176.21" y="-1016.65" font-family="Arial" font-weight="bold" font-size="9.00">TC&#45;CP&#45;010</text>
<text text-anchor="start" x="116.71" y="-1008.45" font-family="Arial" font-size="8.00">AISPOV NENALEZENO ROB — negativní b…</text>
<text text-anchor="start" x="152.21" y="-1001.25" font-family="Arial" font-size="7.00" fill="#404040">→ IN_PROGRESS_DRIVERS</text>
<text text-anchor="start" x="151.71" y="-994.25" font-family="Arial" font-size="7.00" fill="#c00000">AISPOV_ROB_NENALEZENO</text>
<text text-anchor="start" x="179.71" y="-987.25" font-family="Arial" font-size="7.00" fill="#7f7f7f">failure · Pri A</text>
</g>
<!-- TT_CP_R1_B_hub&#45;&gt;TC_CP_010 -->
<g id="edge17" class="edge">
<title>TT_CP_R1_B_hub&#45;&gt;TC_CP_010</title>
<path fill="none" stroke="#7f7f7f" d="M441.58,-903.23C397.33,-921.64 327.75,-950.58 274.56,-972.71"/>
</g>
<!-- TC_CP_011 -->
<g id="node19" class="node">
<title>TC_CP_011</title>
<path fill="#f4b084" stroke="#1f4e79" stroke-width="1.5" d="M195.89,-861.45C195.89,-861.45 62.89,-861.45 62.89,-861.45 56.89,-861.45 50.89,-855.45 50.89,-849.45 50.89,-849.45 50.89,-834.45 50.89,-834.45 50.89,-828.45 56.89,-822.45 62.89,-822.45 62.89,-822.45 195.89,-822.45 195.89,-822.45 201.89,-822.45 207.89,-828.45 207.89,-834.45 207.89,-834.45 207.89,-849.45 207.89,-849.45 207.89,-855.45 201.89,-861.45 195.89,-861.45"/>
<text text-anchor="start" x="106.39" y="-851.25" font-family="Arial" font-weight="bold" font-size="9.00">TC&#45;CP&#45;011</text>
<text text-anchor="start" x="58.89" y="-843.05" font-family="Arial" font-size="8.00">Camera permission denied → gallery…</text>
<text text-anchor="start" x="81.89" y="-835.85" font-family="Arial" font-size="7.00" fill="#404040">→ IN_PROGRESS_DRIVERS</text>
<text text-anchor="start" x="102.39" y="-828.85" font-family="Arial" font-size="7.00" fill="#7f7f7f">regression · Pri A</text>
</g>
<!-- TT_CP_R1_B_hub&#45;&gt;TC_CP_011 -->
<g id="edge18" class="edge">
<title>TT_CP_R1_B_hub&#45;&gt;TC_CP_011</title>
<path fill="none" stroke="#7f7f7f" d="M417.61,-877.02C358.03,-869.77 271.01,-859.18 208.19,-851.54"/>
</g>
<!-- TC_CP_012 -->
<g id="node20" class="node">
<title>TC_CP_012</title>
<ellipse fill="#f4b084" stroke="#1f4e79" stroke-width="1.5" cx="105.36" cy="-667.09" rx="105.22" ry="27.65"/>
<text text-anchor="start" x="81.86" y="-676.39" font-family="Arial" font-weight="bold" font-size="9.00">TC&#45;CP&#45;012</text>
<text text-anchor="start" x="38.86" y="-668.19" font-family="Arial" font-size="8.00">SPZ scan + AISPOV vehicle — happy</text>
<text text-anchor="start" x="49.36" y="-660.99" font-family="Arial" font-size="7.00" fill="#404040">→ IN_PROGRESS_CIRCUMSTA…</text>
<text text-anchor="start" x="85.36" y="-653.99" font-family="Arial" font-size="7.00" fill="#7f7f7f">happy · Pri A</text>
</g>
<!-- TT_CP_R1_C_hub&#45;&gt;TC_CP_012 -->
<g id="edge19" class="edge">
<title>TT_CP_R1_C_hub&#45;&gt;TC_CP_012</title>
<path fill="none" stroke="#7f7f7f" d="M359.47,-591.93C306.74,-607.52 230.59,-630.05 175.42,-646.37"/>
</g>
<!-- TC_CP_013 -->
<g id="node21" class="node">
<title>TC_CP_013</title>
<path fill="#f4b084" stroke="#1f4e79" stroke-width="1.5" d="M200.89,-511.73C200.89,-511.73 57.89,-511.73 57.89,-511.73 51.89,-511.73 45.89,-505.73 45.89,-499.73 45.89,-499.73 45.89,-484.73 45.89,-484.73 45.89,-478.73 51.89,-472.73 57.89,-472.73 57.89,-472.73 200.89,-472.73 200.89,-472.73 206.89,-472.73 212.89,-478.73 212.89,-484.73 212.89,-484.73 212.89,-499.73 212.89,-499.73 212.89,-505.73 206.89,-511.73 200.89,-511.73"/>
<text text-anchor="start" x="105.89" y="-501.53" font-family="Arial" font-weight="bold" font-size="9.00">TC&#45;CP&#45;013</text>
<text text-anchor="start" x="53.89" y="-493.33" font-family="Arial" font-size="8.00">SPZ NOK → gallery upload — recovera…</text>
<text text-anchor="start" x="73.39" y="-486.13" font-family="Arial" font-size="7.00" fill="#404040">→ IN_PROGRESS_CIRCUMSTA…</text>
<text text-anchor="start" x="102.39" y="-479.13" font-family="Arial" font-size="7.00" fill="#7f7f7f">regression · Pri A</text>
</g>
<!-- TT_CP_R1_C_hub&#45;&gt;TC_CP_013 -->
<g id="edge20" class="edge">
<title>TT_CP_R1_C_hub&#45;&gt;TC_CP_013</title>
<path fill="none" stroke="#7f7f7f" d="M356.36,-555.82C309.79,-542.78 246.88,-525.15 199.1,-511.76"/>
</g>
<!-- TC_CP_014 -->
<g id="node22" class="node">
<title>TC_CP_014</title>
<path fill="#ffd966" stroke="#1f4e79" stroke-width="1.5" d="M317.45,-325.45C317.45,-325.45 317.45,-335.23 317.45,-335.23 317.45,-340.12 312.76,-346.42 308.08,-347.83 308.08,-347.83 257.84,-362.94 257.84,-362.94 253.16,-364.35 243.59,-365.75 238.7,-365.75 238.7,-365.75 160.73,-365.75 160.73,-365.75 155.84,-365.75 146.26,-364.35 141.58,-362.94 141.58,-362.94 91.34,-347.83 91.34,-347.83 86.66,-346.42 81.98,-340.12 81.98,-335.23 81.98,-335.23 81.98,-325.45 81.98,-325.45 81.98,-320.56 86.66,-314.26 91.34,-312.85 91.34,-312.85 141.58,-297.74 141.58,-297.74 146.26,-296.33 155.84,-294.92 160.73,-294.92 160.73,-294.92 238.7,-294.92 238.7,-294.92 243.59,-294.92 253.16,-296.33 257.84,-297.74 257.84,-297.74 308.08,-312.85 308.08,-312.85 312.76,-314.26 317.45,-320.56 317.45,-325.45"/>
<text text-anchor="start" x="176.21" y="-343.14" font-family="Arial" font-weight="bold" font-size="9.00">TC&#45;CP&#45;014</text>
<text text-anchor="start" x="130.71" y="-334.94" font-family="Arial" font-size="8.00">AISPOV vehicle missing — negativní…</text>
<text text-anchor="start" x="143.71" y="-327.74" font-family="Arial" font-size="7.00" fill="#404040">→ IN_PROGRESS_CIRCUMSTA…</text>
<text text-anchor="start" x="152.71" y="-320.74" font-family="Arial" font-size="7.00" fill="#c00000">AISPOV_VEHICLE_MISSING</text>
<text text-anchor="start" x="179.21" y="-313.74" font-family="Arial" font-size="7.00" fill="#7f7f7f">failure · Pri B</text>
</g>
<!-- TT_CP_R1_C_hub&#45;&gt;TC_CP_014 -->
<g id="edge21" class="edge">
<title>TT_CP_R1_C_hub&#45;&gt;TC_CP_014</title>
<path fill="none" stroke="#7f7f7f" d="M404.03,-555.53C367.5,-515.27 279.64,-418.44 231.9,-365.82"/>
</g>
<!-- TC_CP_015 -->
<g id="node23" class="node">
<title>TC_CP_015</title>
<ellipse fill="#f4b084" stroke="#1f4e79" stroke-width="1.5" cx="308.92" cy="-194.2" rx="113.69" ry="27.65"/>
<text text-anchor="start" x="285.42" y="-203.5" font-family="Arial" font-weight="bold" font-size="9.00">TC&#45;CP&#45;015</text>
<text text-anchor="start" x="236.42" y="-195.3" font-family="Arial" font-size="8.00">Souhrn → SMS&#45;OTP oba řidiči — happy</text>
<text text-anchor="start" x="287.42" y="-188.1" font-family="Arial" font-size="7.00" fill="#404040">→ FINISHED</text>
<text text-anchor="start" x="288.92" y="-181.1" font-family="Arial" font-size="7.00" fill="#7f7f7f">happy · Pri A</text>
</g>
<!-- TT_CP_R1_D_hub&#45;&gt;TC_CP_015 -->
<g id="edge22" class="edge">
<title>TT_CP_R1_D_hub&#45;&gt;TC_CP_015</title>
<path fill="none" stroke="#7f7f7f" d="M670.62,-304.09C594.21,-280.87 461.68,-240.61 380.02,-215.8"/>
</g>
<!-- TC_CP_016 -->
<g id="node24" class="node">
<title>TC_CP_016</title>
<path fill="#f4b084" stroke="#1f4e79" stroke-width="1.5" d="M554.94,-88.56C554.94,-88.56 554.94,-98.34 554.94,-98.34 554.94,-103.23 550.31,-109.68 545.68,-111.25 545.68,-111.25 502.87,-125.73 502.87,-125.73 498.24,-127.29 488.72,-128.86 483.83,-128.86 483.83,-128.86 416.64,-128.86 416.64,-128.86 411.75,-128.86 402.23,-127.29 397.6,-125.73 397.6,-125.73 354.79,-111.25 354.79,-111.25 350.15,-109.68 345.52,-103.23 345.52,-98.34 345.52,-98.34 345.52,-88.56 345.52,-88.56 345.52,-83.67 350.15,-77.21 354.79,-75.64 354.79,-75.64 397.6,-61.16 397.6,-61.16 402.23,-59.6 411.75,-58.03 416.64,-58.03 416.64,-58.03 483.83,-58.03 483.83,-58.03 488.72,-58.03 498.24,-59.6 502.87,-61.16 502.87,-61.16 545.68,-75.64 545.68,-75.64 550.31,-77.21 554.94,-83.67 554.94,-88.56"/>
<text text-anchor="start" x="426.73" y="-106.25" font-family="Arial" font-weight="bold" font-size="9.00">TC&#45;CP&#45;016</text>
<text text-anchor="start" x="389.73" y="-98.05" font-family="Arial" font-size="8.00">Sign&#45;OTP exhaustion — negativní</text>
<text text-anchor="start" x="432.73" y="-90.85" font-family="Arial" font-size="7.00" fill="#404040">→ ERROR</text>
<text text-anchor="start" x="401.73" y="-83.85" font-family="Arial" font-size="7.00" fill="#c00000">SIGN_OTP_ATTEMPTS (TB…</text>
<text text-anchor="start" x="430.23" y="-76.85" font-family="Arial" font-size="7.00" fill="#7f7f7f">failure · Pri A</text>
</g>
<!-- TT_CP_R1_D_hub&#45;&gt;TC_CP_016 -->
<g id="edge23" class="edge">
<title>TT_CP_R1_D_hub&#45;&gt;TC_CP_016</title>
<path fill="none" stroke="#7f7f7f" d="M707.64,-303.82C661.21,-265.88 553.86,-178.14 493.48,-128.8"/>
</g>
<!-- TC_CP_017 -->
<g id="node25" class="node">
<title>TC_CP_017</title>
<path fill="#f4b084" stroke="#1f4e79" stroke-width="1.5" d="M686.17,-50.22C686.17,-50.22 567.17,-50.22 567.17,-50.22 561.17,-50.22 555.17,-44.22 555.17,-38.22 555.17,-38.22 555.17,-23.22 555.17,-23.22 555.17,-17.22 561.17,-11.22 567.17,-11.22 567.17,-11.22 686.17,-11.22 686.17,-11.22 692.17,-11.22 698.17,-17.22 698.17,-23.22 698.17,-23.22 698.17,-38.22 698.17,-38.22 698.17,-44.22 692.17,-50.22 686.17,-50.22"/>
<text text-anchor="start" x="603.17" y="-40.02" font-family="Arial" font-weight="bold" font-size="9.00">TC&#45;CP&#45;017</text>
<text text-anchor="start" x="563.17" y="-31.82" font-family="Arial" font-size="8.00">Submit timeout retry — recoverable</text>
<text text-anchor="start" x="605.17" y="-24.62" font-family="Arial" font-size="7.00" fill="#404040">→ FINISHED</text>
<text text-anchor="start" x="599.67" y="-17.62" font-family="Arial" font-size="7.00" fill="#7f7f7f">regression · Pri A</text>
</g>
<!-- TT_CP_R1_D_hub&#45;&gt;TC_CP_017 -->
<g id="edge24" class="edge">
<title>TT_CP_R1_D_hub&#45;&gt;TC_CP_017</title>
<path fill="none" stroke="#7f7f7f" d="M723.6,-303.92C705.2,-252.08 652.71,-104.12 633.67,-50.46"/>
</g>
<!-- TC_CP_021 -->
<g id="node29" class="node">
<title>TC_CP_021</title>
<path fill="#ffd966" stroke="#1f4e79" stroke-width="1.5" d="M867.91,-39C867.91,-39 729.91,-39 729.91,-39 723.91,-39 717.91,-33 717.91,-27 717.91,-27 717.91,-12 717.91,-12 717.91,-6 723.91,0 729.91,0 729.91,0 867.91,0 867.91,0 873.91,0 879.91,-6 879.91,-12 879.91,-12 879.91,-27 879.91,-27 879.91,-33 873.91,-39 867.91,-39"/>
<text text-anchor="start" x="775.41" y="-28.8" font-family="Arial" font-weight="bold" font-size="9.00">TC&#45;CP&#45;021</text>
<text text-anchor="start" x="725.91" y="-20.6" font-family="Arial" font-size="8.00">Okolnosti nehody — změna pořadí voz…</text>
<text text-anchor="start" x="742.91" y="-13.4" font-family="Arial" font-size="7.00" fill="#404040">→ IN_PROGRESS_CIRCUMSTA…</text>
<text text-anchor="start" x="771.41" y="-6.4" font-family="Arial" font-size="7.00" fill="#7f7f7f">regression · Pri B</text>
</g>
<!-- TT_CP_R1_D_hub&#45;&gt;TC_CP_021 -->
<g id="edge28" class="edge">
<title>TT_CP_R1_D_hub&#45;&gt;TC_CP_021</title>
<path fill="none" stroke="#7f7f7f" d="M734.16,-304.13C746.26,-250.93 781.76,-94.89 794.39,-39.38"/>
</g>
<!-- TC_CP_022 -->
<g id="node30" class="node">
<title>TC_CP_022</title>
<path fill="#ffd966" stroke="#1f4e79" stroke-width="1.5" d="M1043,-76.1C1043,-76.1 900,-76.1 900,-76.1 894,-76.1 888,-70.1 888,-64.1 888,-64.1 888,-49.1 888,-49.1 888,-43.1 894,-37.1 900,-37.1 900,-37.1 1043,-37.1 1043,-37.1 1049,-37.1 1055,-43.1 1055,-49.1 1055,-49.1 1055,-64.1 1055,-64.1 1055,-70.1 1049,-76.1 1043,-76.1"/>
<text text-anchor="start" x="948" y="-65.9" font-family="Arial" font-weight="bold" font-size="9.00">TC&#45;CP&#45;022</text>
<text text-anchor="start" x="896" y="-57.7" font-family="Arial" font-size="8.00">Místo nehody — větvení GPS vs manuá…</text>
<text text-anchor="start" x="915.5" y="-50.5" font-family="Arial" font-size="7.00" fill="#404040">→ IN_PROGRESS_CIRCUMSTA…</text>
<text text-anchor="start" x="944" y="-43.5" font-family="Arial" font-size="7.00" fill="#7f7f7f">regression · Pri B</text>
</g>
<!-- TT_CP_R1_D_hub&#45;&gt;TC_CP_022 -->
<g id="edge29" class="edge">
<title>TT_CP_R1_D_hub&#45;&gt;TC_CP_022</title>
<path fill="none" stroke="#7f7f7f" d="M746.66,-303.9C790.34,-255.86 908.24,-126.18 953.49,-76.42"/>
</g>
<!-- TC_CP_023 -->
<g id="node31" class="node">
<title>TC_CP_023</title>
<path fill="#ffd966" stroke="#1f4e79" stroke-width="1.5" d="M1194.14,-157.18C1194.14,-157.18 1061.14,-157.18 1061.14,-157.18 1055.14,-157.18 1049.14,-151.18 1049.14,-145.18 1049.14,-145.18 1049.14,-130.18 1049.14,-130.18 1049.14,-124.18 1055.14,-118.18 1061.14,-118.18 1061.14,-118.18 1194.14,-118.18 1194.14,-118.18 1200.14,-118.18 1206.14,-124.18 1206.14,-130.18 1206.14,-130.18 1206.14,-145.18 1206.14,-145.18 1206.14,-151.18 1200.14,-157.18 1194.14,-157.18"/>
<text text-anchor="start" x="1104.14" y="-146.98" font-family="Arial" font-weight="bold" font-size="9.00">TC&#45;CP&#45;023</text>
<text text-anchor="start" x="1057.14" y="-138.78" font-family="Arial" font-size="8.00">Určení viníka nehody — všechny radi…</text>
<text text-anchor="start" x="1071.64" y="-131.58" font-family="Arial" font-size="7.00" fill="#404040">→ IN_PROGRESS_CIRCUMSTA…</text>
<text text-anchor="start" x="1100.14" y="-124.58" font-family="Arial" font-size="7.00" fill="#7f7f7f">regression · Pri B</text>
</g>
<!-- TT_CP_R1_D_hub&#45;&gt;TC_CP_023 -->
<g id="edge30" class="edge">
<title>TT_CP_R1_D_hub&#45;&gt;TC_CP_023</title>
<path fill="none" stroke="#7f7f7f" d="M768.91,-304.13C843.84,-269.36 1007.78,-193.29 1085.35,-157.3"/>
</g>
<!-- TC_CP_018 -->
<g id="node26" class="node">
<title>TC_CP_018</title>
<ellipse fill="#f4b084" stroke="#1f4e79" stroke-width="1.5" cx="1256.24" cy="-258.07" rx="108.38" ry="27.65"/>
<text text-anchor="start" x="1232.74" y="-267.37" font-family="Arial" font-weight="bold" font-size="9.00">TC&#45;CP&#45;018</text>
<text text-anchor="start" x="1187.74" y="-259.17" font-family="Arial" font-size="8.00">End&#45;to&#45;end happy NEW → FINISHED</text>
<text text-anchor="start" x="1234.74" y="-251.97" font-family="Arial" font-size="7.00" fill="#404040">→ FINISHED</text>
<text text-anchor="start" x="1236.24" y="-244.97" font-family="Arial" font-size="7.00" fill="#7f7f7f">happy · Pri A</text>
</g>
<!-- TT_CP_R1_E_hub&#45;&gt;TC_CP_018 -->
<g id="edge25" class="edge">
<title>TT_CP_R1_E_hub&#45;&gt;TC_CP_018</title>
<path fill="none" stroke="#7f7f7f" d="M1044.16,-430.66C1085.9,-396.69 1175.48,-323.79 1223.78,-284.48"/>
</g>
<!-- TC_CP_019 -->
<g id="node27" class="node">
<title>TC_CP_019</title>
<path fill="#f4b084" stroke="#1f4e79" stroke-width="1.5" d="M1443.79,-403.99C1443.79,-403.99 1443.79,-413.77 1443.79,-413.77 1443.79,-418.66 1439.2,-425.24 1434.61,-426.94 1434.61,-426.94 1396.82,-440.91 1396.82,-440.91 1392.23,-442.6 1382.75,-444.3 1377.86,-444.3 1377.86,-444.3 1318.03,-444.3 1318.03,-444.3 1313.14,-444.3 1303.66,-442.6 1299.07,-440.91 1299.07,-440.91 1261.28,-426.94 1261.28,-426.94 1256.69,-425.24 1252.1,-418.66 1252.1,-413.77 1252.1,-413.77 1252.1,-403.99 1252.1,-403.99 1252.1,-399.1 1256.69,-392.52 1261.28,-390.82 1261.28,-390.82 1299.07,-376.85 1299.07,-376.85 1303.66,-375.16 1313.14,-373.47 1318.03,-373.47 1318.03,-373.47 1377.86,-373.47 1377.86,-373.47 1382.75,-373.47 1392.23,-375.16 1396.82,-376.85 1396.82,-376.85 1434.61,-390.82 1434.61,-390.82 1439.2,-392.52 1443.79,-399.1 1443.79,-403.99"/>
<text text-anchor="start" x="1324.45" y="-421.68" font-family="Arial" font-weight="bold" font-size="9.00">TC&#45;CP&#45;019</text>
<text text-anchor="start" x="1293.45" y="-413.48" font-family="Arial" font-size="8.00">Outage active — CTA disabled</text>
<text text-anchor="start" x="1338.45" y="-406.28" font-family="Arial" font-size="7.00" fill="#404040">→ n/a</text>
<text text-anchor="start" x="1318.95" y="-399.28" font-family="Arial" font-size="7.00" fill="#c00000">OUTAGE_ACTIVE</text>
<text text-anchor="start" x="1327.95" y="-392.28" font-family="Arial" font-size="7.00" fill="#7f7f7f">failure · Pri A</text>
</g>
<!-- TT_CP_R1_F_hub&#45;&gt;TC_CP_019 -->
<g id="edge26" class="edge">
<title>TT_CP_R1_F_hub&#45;&gt;TC_CP_019</title>
<path fill="none" stroke="#7f7f7f" d="M1115.07,-555.71C1159.01,-528.01 1243.46,-474.76 1297.69,-440.57"/>
</g>
<!-- TC_CP_020 -->
<g id="node28" class="node">
<title>TC_CP_020</title>
<path fill="#f4b084" stroke="#1f4e79" stroke-width="1.5" d="M1504.96,-573.95C1504.96,-573.95 1504.96,-583.73 1504.96,-583.73 1504.96,-588.62 1500.31,-595.02 1495.66,-596.52 1495.66,-596.52 1450.18,-611.24 1450.18,-611.24 1445.53,-612.75 1435.99,-614.26 1431.1,-614.26 1431.1,-614.26 1360.03,-614.26 1360.03,-614.26 1355.14,-614.26 1345.6,-612.75 1340.95,-611.24 1340.95,-611.24 1295.47,-596.52 1295.47,-596.52 1290.82,-595.02 1286.17,-588.62 1286.17,-583.73 1286.17,-583.73 1286.17,-573.95 1286.17,-573.95 1286.17,-569.06 1290.82,-562.66 1295.47,-561.16 1295.47,-561.16 1340.95,-546.44 1340.95,-546.44 1345.6,-544.93 1355.14,-543.43 1360.03,-543.43 1360.03,-543.43 1431.1,-543.43 1431.1,-543.43 1435.99,-543.43 1445.53,-544.93 1450.18,-546.44 1450.18,-546.44 1495.66,-561.16 1495.66,-561.16 1500.31,-562.66 1504.96,-569.06 1504.96,-573.95"/>
<text text-anchor="start" x="1372.07" y="-591.64" font-family="Arial" font-weight="bold" font-size="9.00">TC&#45;CP&#45;020</text>
<text text-anchor="start" x="1332.07" y="-583.44" font-family="Arial" font-size="8.00">Mid&#45;wizard interlock self&#45;disclosur…</text>
<text text-anchor="start" x="1378.07" y="-576.24" font-family="Arial" font-size="7.00" fill="#404040">→ ERROR</text>
<text text-anchor="start" x="1353.07" y="-569.24" font-family="Arial" font-size="7.00" fill="#c00000">ELIGIBILITY_INTERLOCK</text>
<text text-anchor="start" x="1375.57" y="-562.24" font-family="Arial" font-size="7.00" fill="#7f7f7f">failure · Pri A</text>
</g>
<!-- TT_CP_R1_F_hub&#45;&gt;TC_CP_020 -->
<g id="edge27" class="edge">
<title>TT_CP_R1_F_hub&#45;&gt;TC_CP_020</title>
<path fill="none" stroke="#7f7f7f" d="M1156.89,-574.98C1195.03,-575.59 1242.99,-576.37 1285.89,-577.06"/>
</g>
</g>
</svg>
