<?xml version="1.0" encoding="UTF-8" standalone="no"?>
<!DOCTYPE svg PUBLIC "-//W3C//DTD SVG 1.1//EN"
 "http://www.w3.org/Graphics/SVG/1.1/DTD/svg11.dtd">
<!-- Generated by graphviz version 2.43.0 (0)
 -->
<!-- Title: TC Pages: 1 -->
<svg width="1528pt" height="1403pt"
 viewBox="0.00 0.00 1527.84 1402.65" xmlns="http://www.w3.org/2000/svg" xmlns:xlink="http://www.w3.org/1999/xlink">
<g id="graph0" class="graph" transform="scale(1 1) rotate(0) translate(4 1398.65)">
<title>TC</title>
<polygon fill="white" stroke="transparent" points="-4,4 -4,-1398.65 1523.84,-1398.65 1523.84,4 -4,4"/>
<text text-anchor="start" x="653.42" y="-1383.65" font-family="Arial" font-weight="bold" font-size="10.00">Bouračka — TestCases — automation priority</text>
<text text-anchor="start" x="465.42" y="-1374.45" font-family="Arial" font-size="9.00">23 R1 TestCases · colour = priority (A=red — automate first; B=yellow — next; C=green — later) · shape = type (○ happy · ⬡ failure · □ regression)</text>
<!-- center -->
<g id="node1" class="node">
<title>center</title>
<ellipse fill="#1f4e79" stroke="black" stroke-width="1.5" cx="761.83" cy="-674.18" rx="57.5" ry="57.5"/>
<text text-anchor="start" x="733.33" y="-676.98" font-family="Arial" font-weight="bold" font-size="9.00" fill="white">Bouračka R1</text>
<text text-anchor="start" x="721.33" y="-667.98" font-family="Arial" font-size="9.00" fill="white">automation backlog</text>
</g>
<!-- TT_CP_R1_A1_hub -->
<g id="node2" class="node">
<title>TT_CP_R1_A1_hub</title>
<path fill="#bdd7ee" stroke="#1f4e79" stroke-width="2" d="M1161.26,-786.33C1161.26,-786.33 1036.26,-786.33 1036.26,-786.33 1030.26,-786.33 1024.26,-780.33 1024.26,-774.33 1024.26,-774.33 1024.26,-762.33 1024.26,-762.33 1024.26,-756.33 1030.26,-750.33 1036.26,-750.33 1036.26,-750.33 1161.26,-750.33 1161.26,-750.33 1167.26,-750.33 1173.26,-756.33 1173.26,-762.33 1173.26,-762.33 1173.26,-774.33 1173.26,-774.33 1173.26,-780.33 1167.26,-786.33 1161.26,-786.33"/>
<text text-anchor="start" x="1070.26" y="-770.63" font-family="Arial" font-weight="bold" font-size="9.00">TT&#45;CP&#45;R1&#45;A1</text>
<text text-anchor="start" x="1032.26" y="-762.43" font-family="Arial" font-size="8.00">Vstupní brána a SMS&#45;PING (scree…</text>
</g>
<!-- center&#45;&gt;TT_CP_R1_A1_hub -->
<g id="edge1" class="edge">
<title>center&#45;&gt;TT_CP_R1_A1_hub</title>
<path fill="none" stroke="#7f7f7f" d="M817.47,-689.73C877,-706.36 971.32,-732.72 1034.1,-750.26"/>
</g>
<!-- TT_CP_R1_A2_hub -->
<g id="node3" class="node">
<title>TT_CP_R1_A2_hub</title>
<path fill="#bdd7ee" stroke="#1f4e79" stroke-width="2" d="M945.15,-1020.5C945.15,-1020.5 836.15,-1020.5 836.15,-1020.5 830.15,-1020.5 824.15,-1014.5 824.15,-1008.5 824.15,-1008.5 824.15,-996.5 824.15,-996.5 824.15,-990.5 830.15,-984.5 836.15,-984.5 836.15,-984.5 945.15,-984.5 945.15,-984.5 951.15,-984.5 957.15,-990.5 957.15,-996.5 957.15,-996.5 957.15,-1008.5 957.15,-1008.5 957.15,-1014.5 951.15,-1020.5 945.15,-1020.5"/>
<text text-anchor="start" x="862.15" y="-1004.8" font-family="Arial" font-weight="bold" font-size="9.00">TT&#45;CP&#45;R1&#45;A2</text>
<text text-anchor="start" x="832.15" y="-996.6" font-family="Arial" font-size="8.00">Ověření telefonních čísel (scre…</text>
</g>
<!-- center&#45;&gt;TT_CP_R1_A2_hub -->
<g id="edge2" class="edge">
<title>center&#45;&gt;TT_CP_R1_A2_hub</title>
<path fill="none" stroke="#7f7f7f" d="M782.96,-728.03C812.51,-803.34 864.68,-936.31 883.57,-984.46"/>
</g>
<!-- TT_CP_R1_B_hub -->
<g id="node4" class="node">
<title>TT_CP_R1_B_hub</title>
<path fill="#bdd7ee" stroke="#1f4e79" stroke-width="2" d="M542.6,-912.81C542.6,-912.81 432.6,-912.81 432.6,-912.81 426.6,-912.81 420.6,-906.81 420.6,-900.81 420.6,-900.81 420.6,-888.81 420.6,-888.81 420.6,-882.81 426.6,-876.81 432.6,-876.81 432.6,-876.81 542.6,-876.81 542.6,-876.81 548.6,-876.81 554.6,-882.81 554.6,-888.81 554.6,-888.81 554.6,-900.81 554.6,-900.81 554.6,-906.81 548.6,-912.81 542.6,-912.81"/>
<text text-anchor="start" x="461.6" y="-897.11" font-family="Arial" font-weight="bold" font-size="9.00">TT&#45;CP&#45;R1&#45;B</text>
<text text-anchor="start" x="428.6" y="-888.91" font-family="Arial" font-size="8.00">Načtení dat řidiče (zenID + AIS…</text>
</g>
<!-- center&#45;&gt;TT_CP_R1_B_hub -->
<g id="edge3" class="edge">
<title>center&#45;&gt;TT_CP_R1_B_hub</title>
<path fill="none" stroke="#7f7f7f" d="M716.86,-710.37C657.44,-758.17 555.07,-840.53 510,-876.79"/>
</g>
<!-- TT_CP_R1_C_hub -->
<g id="node5" class="node">
<title>TT_CP_R1_C_hub</title>
<path fill="#bdd7ee" stroke="#1f4e79" stroke-width="2" d="M479.4,-597.86C479.4,-597.86 368.4,-597.86 368.4,-597.86 362.4,-597.86 356.4,-591.86 356.4,-585.86 356.4,-585.86 356.4,-573.86 356.4,-573.86 356.4,-567.86 362.4,-561.86 368.4,-561.86 368.4,-561.86 479.4,-561.86 479.4,-561.86 485.4,-561.86 491.4,-567.86 491.4,-573.86 491.4,-573.86 491.4,-585.86 491.4,-585.86 491.4,-591.86 485.4,-597.86 479.4,-597.86"/>
<text text-anchor="start" x="397.9" y="-582.16" font-family="Arial" font-weight="bold" font-size="9.00">TT&#45;CP&#45;R1&#45;C</text>
<text text-anchor="start" x="364.4" y="-573.96" font-family="Arial" font-size="8.00">SPZ + údaje o vozidle (zenID +…</text>
</g>
<!-- center&#45;&gt;TT_CP_R1_C_hub -->
<g id="edge4" class="edge">
<title>center&#45;&gt;TT_CP_R1_C_hub</title>
<path fill="none" stroke="#7f7f7f" d="M706.41,-658.71C646.68,-642.04 551.71,-615.54 488.61,-597.92"/>
</g>
<!-- TT_CP_R1_D_hub -->
<g id="node6" class="node">
<title>TT_CP_R1_D_hub</title>
<path fill="#bdd7ee" stroke="#1f4e79" stroke-width="2" d="M790.97,-343.31C790.97,-343.31 683.97,-343.31 683.97,-343.31 677.97,-343.31 671.97,-337.31 671.97,-331.31 671.97,-331.31 671.97,-319.31 671.97,-319.31 671.97,-313.31 677.97,-307.31 683.97,-307.31 683.97,-307.31 790.97,-307.31 790.97,-307.31 796.97,-307.31 802.97,-313.31 802.97,-319.31 802.97,-319.31 802.97,-331.31 802.97,-331.31 802.97,-337.31 796.97,-343.31 790.97,-343.31"/>
<text text-anchor="start" x="711.47" y="-327.61" font-family="Arial" font-weight="bold" font-size="9.00">TT&#45;CP&#45;R1&#45;D</text>
<text text-anchor="start" x="679.97" y="-319.41" font-family="Arial" font-size="8.00">Okolnosti, datum, místo, viník,…</text>
</g>
<!-- center&#45;&gt;TT_CP_R1_D_hub -->
<g id="edge5" class="edge">
<title>center&#45;&gt;TT_CP_R1_D_hub</title>
<path fill="none" stroke="#7f7f7f" d="M757.81,-616.57C752.18,-535.87 742.23,-393.42 738.73,-343.34"/>
</g>
<!-- TT_CP_R1_E_hub -->
<g id="node7" class="node">
<title>TT_CP_R1_E_hub</title>
<path fill="#bdd7ee" stroke="#1f4e79" stroke-width="2" d="M1090.67,-471.54C1090.67,-471.54 973.67,-471.54 973.67,-471.54 967.67,-471.54 961.67,-465.54 961.67,-459.54 961.67,-459.54 961.67,-447.54 961.67,-447.54 961.67,-441.54 967.67,-435.54 973.67,-435.54 973.67,-435.54 1090.67,-435.54 1090.67,-435.54 1096.67,-435.54 1102.67,-441.54 1102.67,-447.54 1102.67,-447.54 1102.67,-459.54 1102.67,-459.54 1102.67,-465.54 1096.67,-471.54 1090.67,-471.54"/>
<text text-anchor="start" x="1006.67" y="-455.84" font-family="Arial" font-weight="bold" font-size="9.00">TT&#45;CP&#45;R1&#45;E</text>
<text text-anchor="start" x="969.67" y="-447.64" font-family="Arial" font-size="8.00">End&#45;to&#45;end orchestrace (cross&#45;a…</text>
</g>
<!-- center&#45;&gt;TT_CP_R1_E_hub -->
<g id="edge6" class="edge">
<title>center&#45;&gt;TT_CP_R1_E_hub</title>
<path fill="none" stroke="#7f7f7f" d="M806.48,-637.75C864.96,-590.01 965.3,-508.12 1009.8,-471.8"/>
</g>
<!-- TT_CP_R1_F_hub -->
<g id="node8" class="node">
<title>TT_CP_R1_F_hub</title>
<path fill="#bdd7ee" stroke="#1f4e79" stroke-width="2" d="M1156.1,-597.86C1156.1,-597.86 1039.1,-597.86 1039.1,-597.86 1033.1,-597.86 1027.1,-591.86 1027.1,-585.86 1027.1,-585.86 1027.1,-573.86 1027.1,-573.86 1027.1,-567.86 1033.1,-561.86 1039.1,-561.86 1039.1,-561.86 1156.1,-561.86 1156.1,-561.86 1162.1,-561.86 1168.1,-567.86 1168.1,-573.86 1168.1,-573.86 1168.1,-585.86 1168.1,-585.86 1168.1,-591.86 1162.1,-597.86 1156.1,-597.86"/>
<text text-anchor="start" x="1072.6" y="-582.16" font-family="Arial" font-weight="bold" font-size="9.00">TT&#45;CP&#45;R1&#45;F</text>
<text text-anchor="start" x="1035.1" y="-573.96" font-family="Arial" font-size="8.00">Obálka chyb a ukončení (cross&#45;a…</text>
</g>
<!-- center&#45;&gt;TT_CP_R1_F_hub -->
<g id="edge7" class="edge">
<title>center&#45;&gt;TT_CP_R1_F_hub</title>
<path fill="none" stroke="#7f7f7f" d="M817.28,-658.61C876.7,-641.92 970.89,-615.46 1033.46,-597.88"/>
</g>
<!-- TC_CP_001 -->
<g id="node9" class="node">
<title>TC_CP_001</title>
<ellipse fill="#f4b084" stroke="#1f4e79" stroke-width="1.5" cx="1410.43" cy="-763.46" rx="87.86" ry="27.65"/>
<text text-anchor="start" x="1386.93" y="-772.76" font-family="Arial" font-weight="bold" font-size="9.00">TC&#45;CP&#45;001</text>
<text text-anchor="start" x="1356.43" y="-764.56" font-family="Arial" font-size="8.00">PING SMS Gateway — happy</text>
<text text-anchor="start" x="1397.43" y="-757.36" font-family="Arial" font-size="7.00" fill="#404040">→ NEW</text>
<text text-anchor="start" x="1390.43" y="-750.36" font-family="Arial" font-size="7.00" fill="#7f7f7f">happy · Pri A</text>
</g>
<!-- TT_CP_R1_A1_hub&#45;&gt;TC_CP_001 -->
<g id="edge8" class="edge">
<title>TT_CP_R1_A1_hub&#45;&gt;TC_CP_001</title>
<path fill="none" stroke="#7f7f7f" d="M1173.41,-767.16C1218.34,-766.46 1275.77,-765.56 1322.84,-764.83"/>
</g>
<!-- TC_CP_002 -->
<g id="node10" class="node">
<title>TC_CP_002</title>
<path fill="#f4b084" stroke="#1f4e79" stroke-width="1.5" d="M1486.37,-929.56C1486.37,-929.56 1486.37,-939.34 1486.37,-939.34 1486.37,-944.23 1481.67,-950.48 1476.97,-951.84 1476.97,-951.84 1424.05,-967.15 1424.05,-967.15 1419.36,-968.51 1409.77,-969.87 1404.88,-969.87 1404.88,-969.87 1323.02,-969.87 1323.02,-969.87 1318.13,-969.87 1308.55,-968.51 1303.85,-967.15 1303.85,-967.15 1250.93,-951.84 1250.93,-951.84 1246.23,-950.48 1241.53,-944.23 1241.53,-939.34 1241.53,-939.34 1241.53,-929.56 1241.53,-929.56 1241.53,-924.67 1246.23,-918.42 1250.93,-917.06 1250.93,-917.06 1303.85,-901.75 1303.85,-901.75 1308.55,-900.4 1318.13,-899.04 1323.02,-899.04 1323.02,-899.04 1404.88,-899.04 1404.88,-899.04 1409.77,-899.04 1419.36,-900.4 1424.05,-901.75 1424.05,-901.75 1476.97,-917.06 1476.97,-917.06 1481.67,-918.42 1486.37,-924.67 1486.37,-929.56"/>
<text text-anchor="start" x="1340.45" y="-947.25" font-family="Arial" font-weight="bold" font-size="9.00">TC&#45;CP&#45;002</text>
<text text-anchor="start" x="1291.95" y="-939.05" font-family="Arial" font-size="8.00">PING SMS Gateway — NOK (Endpage)</text>
<text text-anchor="start" x="1354.45" y="-931.85" font-family="Arial" font-size="7.00" fill="#404040">→ n/a</text>
<text text-anchor="start" x="1345.45" y="-924.85" font-family="Arial" font-size="7.00" fill="#c00000">PING_NOK</text>
<text text-anchor="start" x="1343.95" y="-917.85" font-family="Arial" font-size="7.00" fill="#7f7f7f">failure · Pri A</text>
</g>
<!-- TT_CP_R1_A1_hub&#45;&gt;TC_CP_002 -->
<g id="edge9" class="edge">
<title>TT_CP_R1_A1_hub&#45;&gt;TC_CP_002</title>
<path fill="none" stroke="#7f7f7f" d="M1127.64,-786.42C1171.07,-813.63 1253.96,-865.55 1309.1,-900.09"/>
</g>
<!-- TC_CP_003 -->
<g id="node11" class="node">
<title>TC_CP_003</title>
<ellipse fill="#f4b084" stroke="#1f4e79" stroke-width="1.5" cx="1285.43" cy="-1085.25" rx="113.27" ry="27.65"/>
<text text-anchor="start" x="1261.93" y="-1094.55" font-family="Arial" font-weight="bold" font-size="9.00">TC&#45;CP&#45;003</text>
<text text-anchor="start" x="1213.43" y="-1086.35" font-family="Arial" font-size="8.00">Ověření telefonu — happy oba účastn…</text>
<text text-anchor="start" x="1237.93" y="-1079.15" font-family="Arial" font-size="7.00" fill="#404040">→ IN_PROGRESS_DRIVERS</text>
<text text-anchor="start" x="1265.43" y="-1072.15" font-family="Arial" font-size="7.00" fill="#7f7f7f">happy · Pri A</text>
</g>
<!-- TT_CP_R1_A2_hub&#45;&gt;TC_CP_003 -->
<g id="edge10" class="edge">
<title>TT_CP_R1_A2_hub&#45;&gt;TC_CP_003</title>
<path fill="none" stroke="#7f7f7f" d="M957.17,-1016.44C1023.87,-1030.42 1126.84,-1052.01 1199.64,-1067.27"/>
</g>
<!-- TC_CP_004 -->
<g id="node12" class="node">
<title>TC_CP_004</title>
<path fill="#f4b084" stroke="#1f4e79" stroke-width="1.5" d="M1319.7,-1197.74C1319.7,-1197.74 1319.7,-1207.52 1319.7,-1207.52 1319.7,-1212.41 1314.96,-1218.51 1310.22,-1219.72 1310.22,-1219.72 1248,-1235.62 1248,-1235.62 1243.27,-1236.83 1233.64,-1238.04 1228.75,-1238.04 1228.75,-1238.04 1133.52,-1238.04 1133.52,-1238.04 1128.63,-1238.04 1119,-1236.83 1114.26,-1235.62 1114.26,-1235.62 1052.05,-1219.72 1052.05,-1219.72 1047.31,-1218.51 1042.57,-1212.41 1042.57,-1207.52 1042.57,-1207.52 1042.57,-1197.74 1042.57,-1197.74 1042.57,-1192.85 1047.31,-1186.75 1052.05,-1185.54 1052.05,-1185.54 1114.26,-1169.64 1114.26,-1169.64 1119,-1168.42 1128.63,-1167.21 1133.52,-1167.21 1133.52,-1167.21 1228.75,-1167.21 1228.75,-1167.21 1233.64,-1167.21 1243.27,-1168.42 1248,-1169.64 1248,-1169.64 1310.22,-1185.54 1310.22,-1185.54 1314.96,-1186.75 1319.7,-1192.85 1319.7,-1197.74"/>
<text text-anchor="start" x="1157.63" y="-1215.43" font-family="Arial" font-weight="bold" font-size="9.00">TC&#45;CP&#45;004</text>
<text text-anchor="start" x="1098.63" y="-1207.23" font-family="Arial" font-size="8.00">OTP — vyčerpání pokusů (SMS_CODE_AT…</text>
<text text-anchor="start" x="1163.63" y="-1200.03" font-family="Arial" font-size="7.00" fill="#404040">→ ERROR</text>
<text text-anchor="start" x="1140.63" y="-1193.03" font-family="Arial" font-size="7.00" fill="#c00000">SMS_CODE_ATTEMPTS</text>
<text text-anchor="start" x="1161.13" y="-1186.03" font-family="Arial" font-size="7.00" fill="#7f7f7f">failure · Pri A</text>
</g>
<!-- TT_CP_R1_A2_hub&#45;&gt;TC_CP_004 -->
<g id="edge11" class="edge">
<title>TT_CP_R1_A2_hub&#45;&gt;TC_CP_004</title>
<path fill="none" stroke="#7f7f7f" d="M916.94,-1020.61C964.98,-1053.71 1067.73,-1124.5 1129.98,-1167.39"/>
</g>
<!-- TC_CP_005 -->
<g id="node13" class="node">
<title>TC_CP_005</title>
<path fill="#f4b084" stroke="#1f4e79" stroke-width="1.5" d="M1163.67,-1276.18C1163.67,-1276.18 1163.67,-1285.96 1163.67,-1285.96 1163.67,-1290.85 1158.97,-1297.08 1154.27,-1298.43 1154.27,-1298.43 1100.76,-1313.78 1100.76,-1313.78 1096.06,-1315.13 1086.47,-1316.48 1081.58,-1316.48 1081.58,-1316.48 998.87,-1316.48 998.87,-1316.48 993.98,-1316.48 984.39,-1315.13 979.69,-1313.78 979.69,-1313.78 926.17,-1298.43 926.17,-1298.43 921.47,-1297.08 916.77,-1290.85 916.77,-1285.96 916.77,-1285.96 916.77,-1276.18 916.77,-1276.18 916.77,-1271.29 921.47,-1265.05 926.17,-1263.7 926.17,-1263.7 979.69,-1248.35 979.69,-1248.35 984.39,-1247 993.98,-1245.65 998.87,-1245.65 998.87,-1245.65 1081.58,-1245.65 1081.58,-1245.65 1086.47,-1245.65 1096.06,-1247 1100.76,-1248.35 1100.76,-1248.35 1154.27,-1263.7 1154.27,-1263.7 1158.97,-1265.05 1163.67,-1271.29 1163.67,-1276.18"/>
<text text-anchor="start" x="1016.72" y="-1293.87" font-family="Arial" font-weight="bold" font-size="9.00">TC&#45;CP&#45;005</text>
<text text-anchor="start" x="967.72" y="-1285.67" font-family="Arial" font-size="8.00">Telefonní číslo nadužíváno (TELEPHO…</text>
<text text-anchor="start" x="1022.72" y="-1278.47" font-family="Arial" font-size="7.00" fill="#404040">→ ERROR</text>
<text text-anchor="start" x="987.22" y="-1271.47" font-family="Arial" font-size="7.00" fill="#c00000">TELEPHONE_NUMBER_COUNT</text>
<text text-anchor="start" x="1020.22" y="-1264.47" font-family="Arial" font-size="7.00" fill="#7f7f7f">failure · Pri A</text>
</g>
<!-- TT_CP_R1_A2_hub&#45;&gt;TC_CP_005 -->
<g id="edge12" class="edge">
<title>TT_CP_R1_A2_hub&#45;&gt;TC_CP_005</title>
<path fill="none" stroke="#7f7f7f" d="M900.46,-1020.78C924.97,-1066.41 989.16,-1185.96 1021.31,-1245.84"/>
</g>
<!-- TC_CP_006 -->
<g id="node14" class="node">
<title>TC_CP_006</title>
<path fill="#ffd966" stroke="#1f4e79" stroke-width="1.5" d="M908.81,-1327.55C908.81,-1327.55 908.81,-1337.33 908.81,-1337.33 908.81,-1342.22 904.13,-1348.54 899.46,-1349.96 899.46,-1349.96 850.11,-1365.01 850.11,-1365.01 845.44,-1366.43 835.87,-1367.86 830.98,-1367.86 830.98,-1367.86 754.3,-1367.86 754.3,-1367.86 749.41,-1367.86 739.84,-1366.43 735.16,-1365.01 735.16,-1365.01 685.82,-1349.96 685.82,-1349.96 681.14,-1348.54 676.47,-1342.22 676.47,-1337.33 676.47,-1337.33 676.47,-1327.55 676.47,-1327.55 676.47,-1322.66 681.14,-1316.35 685.82,-1314.92 685.82,-1314.92 735.16,-1299.88 735.16,-1299.88 739.84,-1298.45 749.41,-1297.03 754.3,-1297.03 754.3,-1297.03 830.98,-1297.03 830.98,-1297.03 835.87,-1297.03 845.44,-1298.45 850.11,-1299.88 850.11,-1299.88 899.46,-1314.92 899.46,-1314.92 904.13,-1316.35 908.81,-1322.66 908.81,-1327.55"/>
<text text-anchor="start" x="769.14" y="-1345.24" font-family="Arial" font-weight="bold" font-size="9.00">TC&#45;CP&#45;006</text>
<text text-anchor="start" x="724.64" y="-1337.04" font-family="Arial" font-size="8.00">SMS Gateway HTTP 422 EX_CHYBA</text>
<text text-anchor="start" x="783.14" y="-1329.84" font-family="Arial" font-size="7.00" fill="#404040">→ n/a</text>
<text text-anchor="start" x="774.14" y="-1322.84" font-family="Arial" font-size="7.00" fill="#c00000">EX_CHYBA</text>
<text text-anchor="start" x="772.14" y="-1315.84" font-family="Arial" font-size="7.00" fill="#7f7f7f">failure · Pri B</text>
</g>
<!-- TT_CP_R1_A2_hub&#45;&gt;TC_CP_006 -->
<g id="edge13" class="edge">
<title>TT_CP_R1_A2_hub&#45;&gt;TC_CP_006</title>
<path fill="none" stroke="#7f7f7f" d="M885.24,-1020.71C869.57,-1073.46 823.94,-1227.08 803.16,-1297.02"/>
</g>
<!-- TC_CP_007 -->
<g id="node15" class="node">
<title>TC_CP_007</title>
<path fill="#f4b084" stroke="#1f4e79" stroke-width="1.5" d="M656.22,-1339.07C656.22,-1339.07 554.22,-1339.07 554.22,-1339.07 548.22,-1339.07 542.22,-1333.07 542.22,-1327.07 542.22,-1327.07 542.22,-1312.07 542.22,-1312.07 542.22,-1306.07 548.22,-1300.07 554.22,-1300.07 554.22,-1300.07 656.22,-1300.07 656.22,-1300.07 662.22,-1300.07 668.22,-1306.07 668.22,-1312.07 668.22,-1312.07 668.22,-1327.07 668.22,-1327.07 668.22,-1333.07 662.22,-1339.07 656.22,-1339.07"/>
<text text-anchor="start" x="581.72" y="-1328.87" font-family="Arial" font-weight="bold" font-size="9.00">TC&#45;CP&#45;007</text>
<text text-anchor="start" x="550.22" y="-1320.67" font-family="Arial" font-size="8.00">OTP retry happy (recoverable)</text>
<text text-anchor="start" x="557.72" y="-1313.47" font-family="Arial" font-size="7.00" fill="#404040">→ IN_PROGRESS_DRIVERS</text>
<text text-anchor="start" x="578.22" y="-1306.47" font-family="Arial" font-size="7.00" fill="#7f7f7f">regression · Pri A</text>
</g>
<!-- TT_CP_R1_A2_hub&#45;&gt;TC_CP_007 -->
<g id="edge14" class="edge">
<title>TT_CP_R1_A2_hub&#45;&gt;TC_CP_007</title>
<path fill="none" stroke="#7f7f7f" d="M874.07,-1020.92C823.98,-1076.56 674.49,-1242.62 622.93,-1299.89"/>
</g>
<!-- TC_CP_008 -->
<g id="node16" class="node">
<title>TC_CP_008</title>
<ellipse fill="#f4b084" stroke="#1f4e79" stroke-width="1.5" cx="446.19" cy="-1256.13" rx="111.03" ry="27.65"/>
<text text-anchor="start" x="422.69" y="-1265.43" font-family="Arial" font-weight="bold" font-size="9.00">TC&#45;CP&#45;008</text>
<text text-anchor="start" x="375.69" y="-1257.23" font-family="Arial" font-size="8.00">zenID + AISPOV ROB — happy auto&#45;fill</text>
<text text-anchor="start" x="398.69" y="-1250.03" font-family="Arial" font-size="7.00" fill="#404040">→ IN_PROGRESS_DRIVERS</text>
<text text-anchor="start" x="426.19" y="-1243.03" font-family="Arial" font-size="7.00" fill="#7f7f7f">happy · Pri A</text>
</g>
<!-- TT_CP_R1_B_hub&#45;&gt;TC_CP_008 -->
<g id="edge15" class="edge">
<title>TT_CP_R1_B_hub&#45;&gt;TC_CP_008</title>
<path fill="none" stroke="#7f7f7f" d="M485.49,-913.23C478.71,-972.4 457.44,-1157.96 449.36,-1228.52"/>
</g>
<!-- TC_CP_009 -->
<g id="node17" class="node">
<title>TC_CP_009</title>
<path fill="#f4b084" stroke="#1f4e79" stroke-width="1.5" d="M383.26,-1172.8C383.26,-1172.8 240.26,-1172.8 240.26,-1172.8 234.26,-1172.8 228.26,-1166.8 228.26,-1160.8 228.26,-1160.8 228.26,-1145.8 228.26,-1145.8 228.26,-1139.8 234.26,-1133.8 240.26,-1133.8 240.26,-1133.8 383.26,-1133.8 383.26,-1133.8 389.26,-1133.8 395.26,-1139.8 395.26,-1145.8 395.26,-1145.8 395.26,-1160.8 395.26,-1160.8 395.26,-1166.8 389.26,-1172.8 383.26,-1172.8"/>
<text text-anchor="start" x="288.26" y="-1162.6" font-family="Arial" font-weight="bold" font-size="9.00">TC&#45;CP&#45;009</text>
<text text-anchor="start" x="236.26" y="-1154.4" font-family="Arial" font-size="8.00">zenID NOK → manual + AISPOV button…</text>
<text text-anchor="start" x="264.26" y="-1147.2" font-family="Arial" font-size="7.00" fill="#404040">→ IN_PROGRESS_DRIVERS</text>
<text text-anchor="start" x="284.76" y="-1140.2" font-family="Arial" font-size="7.00" fill="#7f7f7f">regression · Pri A</text>
</g>
<!-- TT_CP_R1_B_hub&#45;&gt;TC_CP_009 -->
<g id="edge16" class="edge">
<title>TT_CP_R1_B_hub&#45;&gt;TC_CP_009</title>
<path fill="none" stroke="#7f7f7f" d="M475.23,-912.99C443.26,-959.99 358.05,-1085.25 325.06,-1133.74"/>
</g>
<!-- TC_CP_010 -->
<g id="node18" class="node">
<title>TC_CP_010</title>
<path fill="#f4b084" stroke="#1f4e79" stroke-width="1.5" d="M339.74,-1009.92C339.74,-1009.92 339.74,-1019.7 339.74,-1019.7 339.74,-1024.59 335,-1030.69 330.27,-1031.9 330.27,-1031.9 267.74,-1047.82 267.74,-1047.82 263,-1049.02 253.37,-1050.23 248.48,-1050.23 248.48,-1050.23 152.81,-1050.23 152.81,-1050.23 147.92,-1050.23 138.3,-1049.02 133.56,-1047.82 133.56,-1047.82 71.03,-1031.9 71.03,-1031.9 66.29,-1030.69 61.55,-1024.59 61.55,-1019.7 61.55,-1019.7 61.55,-1009.92 61.55,-1009.92 61.55,-1005.03 66.29,-998.94 71.03,-997.73 71.03,-997.73 133.56,-981.81 133.56,-981.81 138.3,-980.61 147.92,-979.4 152.81,-979.4 152.81,-979.4 248.48,-979.4 248.48,-979.4 253.37,-979.4 263,-980.61 267.74,-981.81 267.74,-981.81 330.27,-997.73 330.27,-997.73 335,-998.94 339.74,-1005.03 339.74,-1009.92"/>
<text text-anchor="start" x="177.15" y="-1027.61" font-family="Arial" font-weight="bold" font-size="9.00">TC&#45;CP&#45;010</text>
<text text-anchor="start" x="117.65" y="-1019.41" font-family="Arial" font-size="8.00">AISPOV NENALEZENO ROB — negativní b…</text>
<text text-anchor="start" x="153.15" y="-1012.21" font-family="Arial" font-size="7.00" fill="#404040">→ IN_PROGRESS_DRIVERS</text>
<text text-anchor="start" x="152.65" y="-1005.21" font-family="Arial" font-size="7.00" fill="#c00000">AISPOV_ROB_NENALEZENO</text>
<text text-anchor="start" x="180.65" y="-998.21" font-family="Arial" font-size="7.00" fill="#7f7f7f">failure · Pri A</text>
</g>
<!-- TT_CP_R1_B_hub&#45;&gt;TC_CP_010 -->
<g id="edge17" class="edge">
<title>TT_CP_R1_B_hub&#45;&gt;TC_CP_010</title>
<path fill="none" stroke="#7f7f7f" d="M444.33,-912.91C399.63,-931.6 329.01,-961.13 275.28,-983.6"/>
</g>
<!-- TC_CP_011 -->
<g id="node19" class="node">
<title>TC_CP_011</title>
<path fill="#f4b084" stroke="#1f4e79" stroke-width="1.5" d="M196.1,-870.56C196.1,-870.56 63.1,-870.56 63.1,-870.56 57.1,-870.56 51.1,-864.56 51.1,-858.56 51.1,-858.56 51.1,-843.56 51.1,-843.56 51.1,-837.56 57.1,-831.56 63.1,-831.56 63.1,-831.56 196.1,-831.56 196.1,-831.56 202.1,-831.56 208.1,-837.56 208.1,-843.56 208.1,-843.56 208.1,-858.56 208.1,-858.56 208.1,-864.56 202.1,-870.56 196.1,-870.56"/>
<text text-anchor="start" x="106.6" y="-860.36" font-family="Arial" font-weight="bold" font-size="9.00">TC&#45;CP&#45;011</text>
<text text-anchor="start" x="59.1" y="-852.16" font-family="Arial" font-size="8.00">Camera permission denied → gallery…</text>
<text text-anchor="start" x="82.1" y="-844.96" font-family="Arial" font-size="7.00" fill="#404040">→ IN_PROGRESS_DRIVERS</text>
<text text-anchor="start" x="102.6" y="-837.96" font-family="Arial" font-size="7.00" fill="#7f7f7f">regression · Pri A</text>
</g>
<!-- TT_CP_R1_B_hub&#45;&gt;TC_CP_011 -->
<g id="edge18" class="edge">
<title>TT_CP_R1_B_hub&#45;&gt;TC_CP_011</title>
<path fill="none" stroke="#7f7f7f" d="M420.26,-886.58C360,-879.22 271.64,-868.42 208.17,-860.66"/>
</g>
<!-- TC_CP_012 -->
<g id="node20" class="node">
<title>TC_CP_012</title>
<ellipse fill="#f4b084" stroke="#1f4e79" stroke-width="1.5" cx="105.36" cy="-674.19" rx="105.22" ry="27.65"/>
<text text-anchor="start" x="81.86" y="-683.49" font-family="Arial" font-weight="bold" font-size="9.00">TC&#45;CP&#45;012</text>
<text text-anchor="start" x="38.86" y="-675.29" font-family="Arial" font-size="8.00">SPZ scan + AISPOV vehicle — happy</text>
<text text-anchor="start" x="49.36" y="-668.09" font-family="Arial" font-size="7.00" fill="#404040">→ IN_PROGRESS_CIRCUMSTA…</text>
<text text-anchor="start" x="85.36" y="-661.09" font-family="Arial" font-size="7.00" fill="#7f7f7f">happy · Pri A</text>
</g>
<!-- TT_CP_R1_C_hub&#45;&gt;TC_CP_012 -->
<g id="edge19" class="edge">
<title>TT_CP_R1_C_hub&#45;&gt;TC_CP_012</title>
<path fill="none" stroke="#7f7f7f" d="M362.86,-597.94C309.3,-613.8 231.42,-636.86 175.34,-653.47"/>
</g>
<!-- TC_CP_013 -->
<g id="node21" class="node">
<title>TC_CP_013</title>
<path fill="#f4b084" stroke="#1f4e79" stroke-width="1.5" d="M201.17,-516.82C201.17,-516.82 58.17,-516.82 58.17,-516.82 52.17,-516.82 46.17,-510.82 46.17,-504.82 46.17,-504.82 46.17,-489.82 46.17,-489.82 46.17,-483.82 52.17,-477.82 58.17,-477.82 58.17,-477.82 201.17,-477.82 201.17,-477.82 207.17,-477.82 213.17,-483.82 213.17,-489.82 213.17,-489.82 213.17,-504.82 213.17,-504.82 213.17,-510.82 207.17,-516.82 201.17,-516.82"/>
<text text-anchor="start" x="106.17" y="-506.62" font-family="Arial" font-weight="bold" font-size="9.00">TC&#45;CP&#45;013</text>
<text text-anchor="start" x="54.17" y="-498.42" font-family="Arial" font-size="8.00">SPZ NOK → gallery upload — recovera…</text>
<text text-anchor="start" x="73.67" y="-491.22" font-family="Arial" font-size="7.00" fill="#404040">→ IN_PROGRESS_CIRCUMSTA…</text>
<text text-anchor="start" x="102.67" y="-484.22" font-family="Arial" font-size="7.00" fill="#7f7f7f">regression · Pri A</text>
</g>
<!-- TT_CP_R1_C_hub&#45;&gt;TC_CP_013 -->
<g id="edge20" class="edge">
<title>TT_CP_R1_C_hub&#45;&gt;TC_CP_013</title>
<path fill="none" stroke="#7f7f7f" d="M359.7,-561.85C312.35,-548.57 248,-530.52 199.39,-516.88"/>
</g>
<!-- TC_CP_014 -->
<g id="node22" class="node">
<title>TC_CP_014</title>
<path fill="#ffd966" stroke="#1f4e79" stroke-width="1.5" d="M317.27,-328.69C317.27,-328.69 317.27,-338.47 317.27,-338.47 317.27,-343.36 312.59,-349.66 307.9,-351.07 307.9,-351.07 257.67,-366.18 257.67,-366.18 252.98,-367.59 243.41,-369 238.52,-369 238.52,-369 160.55,-369 160.55,-369 155.66,-369 146.09,-367.59 141.4,-366.18 141.4,-366.18 91.17,-351.07 91.17,-351.07 86.48,-349.66 81.8,-343.36 81.8,-338.47 81.8,-338.47 81.8,-328.69 81.8,-328.69 81.8,-323.8 86.48,-317.5 91.17,-316.1 91.17,-316.1 141.4,-300.98 141.4,-300.98 146.09,-299.58 155.66,-298.17 160.55,-298.17 160.55,-298.17 238.52,-298.17 238.52,-298.17 243.41,-298.17 252.98,-299.58 257.67,-300.98 257.67,-300.98 307.9,-316.1 307.9,-316.1 312.59,-317.5 317.27,-323.8 317.27,-328.69"/>
<text text-anchor="start" x="176.04" y="-346.38" font-family="Arial" font-weight="bold" font-size="9.00">TC&#45;CP&#45;014</text>
<text text-anchor="start" x="130.54" y="-338.18" font-family="Arial" font-size="8.00">AISPOV vehicle missing — negativní…</text>
<text text-anchor="start" x="143.54" y="-330.98" font-family="Arial" font-size="7.00" fill="#404040">→ IN_PROGRESS_CIRCUMSTA…</text>
<text text-anchor="start" x="152.54" y="-323.98" font-family="Arial" font-size="7.00" fill="#c00000">AISPOV_VEHICLE_MISSING</text>
<text text-anchor="start" x="179.04" y="-316.98" font-family="Arial" font-size="7.00" fill="#7f7f7f">failure · Pri B</text>
</g>
<!-- TT_CP_R1_C_hub&#45;&gt;TC_CP_014 -->
<g id="edge21" class="edge">
<title>TT_CP_R1_C_hub&#45;&gt;TC_CP_014</title>
<path fill="none" stroke="#7f7f7f" d="M407.41,-561.75C370.47,-521.21 280.55,-422.51 231.97,-369.18"/>
</g>
<!-- TC_CP_015 -->
<g id="node23" class="node">
<title>TC_CP_015</title>
<ellipse fill="#f4b084" stroke="#1f4e79" stroke-width="1.5" cx="311.68" cy="-195.73" rx="113.69" ry="27.65"/>
<text text-anchor="start" x="288.18" y="-205.03" font-family="Arial" font-weight="bold" font-size="9.00">TC&#45;CP&#45;015</text>
<text text-anchor="start" x="239.18" y="-196.83" font-family="Arial" font-size="8.00">Souhrn → SMS&#45;OTP oba řidiči — happy</text>
<text text-anchor="start" x="290.18" y="-189.63" font-family="Arial" font-size="7.00" fill="#404040">→ FINISHED</text>
<text text-anchor="start" x="291.68" y="-182.63" font-family="Arial" font-size="7.00" fill="#7f7f7f">happy · Pri A</text>
</g>
<!-- TT_CP_R1_D_hub&#45;&gt;TC_CP_015 -->
<g id="edge22" class="edge">
<title>TT_CP_R1_D_hub&#45;&gt;TC_CP_015</title>
<path fill="none" stroke="#7f7f7f" d="M678.27,-307.29C600.92,-283.75 465.61,-242.57 382.79,-217.37"/>
</g>
<!-- TC_CP_016 -->
<g id="node24" class="node">
<title>TC_CP_016</title>
<path fill="#f4b084" stroke="#1f4e79" stroke-width="1.5" d="M559.89,-88.71C559.89,-88.71 559.89,-98.49 559.89,-98.49 559.89,-103.38 555.26,-109.83 550.63,-111.4 550.63,-111.4 507.82,-125.88 507.82,-125.88 503.19,-127.44 493.66,-129.01 488.77,-129.01 488.77,-129.01 421.59,-129.01 421.59,-129.01 416.7,-129.01 407.18,-127.44 402.54,-125.88 402.54,-125.88 359.73,-111.4 359.73,-111.4 355.1,-109.83 350.47,-103.38 350.47,-98.49 350.47,-98.49 350.47,-88.71 350.47,-88.71 350.47,-83.82 355.1,-77.36 359.73,-75.79 359.73,-75.79 402.54,-61.31 402.54,-61.31 407.18,-59.75 416.7,-58.18 421.59,-58.18 421.59,-58.18 488.77,-58.18 488.77,-58.18 493.66,-58.18 503.19,-59.75 507.82,-61.31 507.82,-61.31 550.63,-75.79 550.63,-75.79 555.26,-77.36 559.89,-83.82 559.89,-88.71"/>
<text text-anchor="start" x="431.68" y="-106.4" font-family="Arial" font-weight="bold" font-size="9.00">TC&#45;CP&#45;016</text>
<text text-anchor="start" x="394.68" y="-98.2" font-family="Arial" font-size="8.00">Sign&#45;OTP exhaustion — negativní</text>
<text text-anchor="start" x="437.68" y="-91" font-family="Arial" font-size="7.00" fill="#404040">→ ERROR</text>
<text text-anchor="start" x="406.68" y="-84" font-family="Arial" font-size="7.00" fill="#c00000">SIGN_OTP_ATTEMPTS (TB…</text>
<text text-anchor="start" x="435.18" y="-77" font-family="Arial" font-size="7.00" fill="#7f7f7f">failure · Pri A</text>
</g>
<!-- TT_CP_R1_D_hub&#45;&gt;TC_CP_016 -->
<g id="edge23" class="edge">
<title>TT_CP_R1_D_hub&#45;&gt;TC_CP_016</title>
<path fill="none" stroke="#7f7f7f" d="M715.32,-307.13C668.6,-268.77 559.23,-179.01 498.23,-128.93"/>
</g>
<!-- TC_CP_017 -->
<g id="node25" class="node">
<title>TC_CP_017</title>
<path fill="#f4b084" stroke="#1f4e79" stroke-width="1.5" d="M691.18,-50.37C691.18,-50.37 572.18,-50.37 572.18,-50.37 566.18,-50.37 560.18,-44.37 560.18,-38.37 560.18,-38.37 560.18,-23.37 560.18,-23.37 560.18,-17.37 566.18,-11.37 572.18,-11.37 572.18,-11.37 691.18,-11.37 691.18,-11.37 697.18,-11.37 703.18,-17.37 703.18,-23.37 703.18,-23.37 703.18,-38.37 703.18,-38.37 703.18,-44.37 697.18,-50.37 691.18,-50.37"/>
<text text-anchor="start" x="608.18" y="-40.17" font-family="Arial" font-weight="bold" font-size="9.00">TC&#45;CP&#45;017</text>
<text text-anchor="start" x="568.18" y="-31.97" font-family="Arial" font-size="8.00">Submit timeout retry — recoverable</text>
<text text-anchor="start" x="610.18" y="-24.77" font-family="Arial" font-size="7.00" fill="#404040">→ FINISHED</text>
<text text-anchor="start" x="604.68" y="-17.77" font-family="Arial" font-size="7.00" fill="#7f7f7f">regression · Pri A</text>
</g>
<!-- TT_CP_R1_D_hub&#45;&gt;TC_CP_017 -->
<g id="edge24" class="edge">
<title>TT_CP_R1_D_hub&#45;&gt;TC_CP_017</title>
<path fill="none" stroke="#7f7f7f" d="M730.86,-306.89C711.99,-254.39 658.07,-104.31 638.71,-50.43"/>
</g>
<!-- TC_CP_021 -->
<g id="node29" class="node">
<title>TC_CP_021</title>
<path fill="#ffd966" stroke="#1f4e79" stroke-width="1.5" d="M876.53,-39C876.53,-39 738.53,-39 738.53,-39 732.53,-39 726.53,-33 726.53,-27 726.53,-27 726.53,-12 726.53,-12 726.53,-6 732.53,0 738.53,0 738.53,0 876.53,0 876.53,0 882.53,0 888.53,-6 888.53,-12 888.53,-12 888.53,-27 888.53,-27 888.53,-33 882.53,-39 876.53,-39"/>
<text text-anchor="start" x="784.03" y="-28.8" font-family="Arial" font-weight="bold" font-size="9.00">TC&#45;CP&#45;021</text>
<text text-anchor="start" x="734.53" y="-20.6" font-family="Arial" font-size="8.00">Okolnosti nehody — změna pořadí voz…</text>
<text text-anchor="start" x="751.53" y="-13.4" font-family="Arial" font-size="7.00" fill="#404040">→ IN_PROGRESS_CIRCUMSTA…</text>
<text text-anchor="start" x="780.03" y="-6.4" font-family="Arial" font-size="7.00" fill="#7f7f7f">regression · Pri B</text>
</g>
<!-- TT_CP_R1_D_hub&#45;&gt;TC_CP_021 -->
<g id="edge28" class="edge">
<title>TT_CP_R1_D_hub&#45;&gt;TC_CP_021</title>
<path fill="none" stroke="#7f7f7f" d="M741.65,-307.1C753.99,-253.22 790.26,-94.92 803.02,-39.19"/>
</g>
<!-- TC_CP_022 -->
<g id="node30" class="node">
<title>TC_CP_022</title>
<path fill="#ffd966" stroke="#1f4e79" stroke-width="1.5" d="M1053.19,-75.97C1053.19,-75.97 910.19,-75.97 910.19,-75.97 904.19,-75.97 898.19,-69.97 898.19,-63.97 898.19,-63.97 898.19,-48.97 898.19,-48.97 898.19,-42.97 904.19,-36.97 910.19,-36.97 910.19,-36.97 1053.19,-36.97 1053.19,-36.97 1059.19,-36.97 1065.19,-42.97 1065.19,-48.97 1065.19,-48.97 1065.19,-63.97 1065.19,-63.97 1065.19,-69.97 1059.19,-75.97 1053.19,-75.97"/>
<text text-anchor="start" x="958.19" y="-65.77" font-family="Arial" font-weight="bold" font-size="9.00">TC&#45;CP&#45;022</text>
<text text-anchor="start" x="906.19" y="-57.57" font-family="Arial" font-size="8.00">Místo nehody — větvení GPS vs manuá…</text>
<text text-anchor="start" x="925.69" y="-50.37" font-family="Arial" font-size="7.00" fill="#404040">→ IN_PROGRESS_CIRCUMSTA…</text>
<text text-anchor="start" x="954.19" y="-43.37" font-family="Arial" font-size="7.00" fill="#7f7f7f">regression · Pri B</text>
</g>
<!-- TT_CP_R1_D_hub&#45;&gt;TC_CP_022 -->
<g id="edge29" class="edge">
<title>TT_CP_R1_D_hub&#45;&gt;TC_CP_022</title>
<path fill="none" stroke="#7f7f7f" d="M753.88,-307.25C797.83,-258.87 918.02,-126.56 963.73,-76.25"/>
</g>
<!-- TC_CP_023 -->
<g id="node31" class="node">
<title>TC_CP_023</title>
<path fill="#ffd966" stroke="#1f4e79" stroke-width="1.5" d="M1205.48,-158.11C1205.48,-158.11 1072.48,-158.11 1072.48,-158.11 1066.48,-158.11 1060.48,-152.11 1060.48,-146.11 1060.48,-146.11 1060.48,-131.11 1060.48,-131.11 1060.48,-125.11 1066.48,-119.11 1072.48,-119.11 1072.48,-119.11 1205.48,-119.11 1205.48,-119.11 1211.48,-119.11 1217.48,-125.11 1217.48,-131.11 1217.48,-131.11 1217.48,-146.11 1217.48,-146.11 1217.48,-152.11 1211.48,-158.11 1205.48,-158.11"/>
<text text-anchor="start" x="1115.48" y="-147.91" font-family="Arial" font-weight="bold" font-size="9.00">TC&#45;CP&#45;023</text>
<text text-anchor="start" x="1068.48" y="-139.71" font-family="Arial" font-size="8.00">Určení viníka nehody — všechny radi…</text>
<text text-anchor="start" x="1082.98" y="-132.51" font-family="Arial" font-size="7.00" fill="#404040">→ IN_PROGRESS_CIRCUMSTA…</text>
<text text-anchor="start" x="1111.48" y="-125.51" font-family="Arial" font-size="7.00" fill="#7f7f7f">regression · Pri B</text>
</g>
<!-- TT_CP_R1_D_hub&#45;&gt;TC_CP_023 -->
<g id="edge30" class="edge">
<title>TT_CP_R1_D_hub&#45;&gt;TC_CP_023</title>
<path fill="none" stroke="#7f7f7f" d="M776.34,-307.24C852.01,-272.05 1018.54,-194.62 1096.79,-158.23"/>
</g>
<!-- TC_CP_018 -->
<g id="node26" class="node">
<title>TC_CP_018</title>
<ellipse fill="#f4b084" stroke="#1f4e79" stroke-width="1.5" cx="1269.46" cy="-260.47" rx="108.38" ry="27.65"/>
<text text-anchor="start" x="1245.96" y="-269.77" font-family="Arial" font-weight="bold" font-size="9.00">TC&#45;CP&#45;018</text>
<text text-anchor="start" x="1200.96" y="-261.57" font-family="Arial" font-size="8.00">End&#45;to&#45;end happy NEW → FINISHED</text>
<text text-anchor="start" x="1247.96" y="-254.37" font-family="Arial" font-size="7.00" fill="#404040">→ FINISHED</text>
<text text-anchor="start" x="1249.46" y="-247.37" font-family="Arial" font-size="7.00" fill="#7f7f7f">happy · Pri A</text>
</g>
<!-- TT_CP_R1_E_hub&#45;&gt;TC_CP_018 -->
<g id="edge25" class="edge">
<title>TT_CP_R1_E_hub&#45;&gt;TC_CP_018</title>
<path fill="none" stroke="#7f7f7f" d="M1054.49,-435.38C1096.6,-401.12 1187.92,-326.81 1236.89,-286.97"/>
</g>
<!-- TC_CP_019 -->
<g id="node27" class="node">
<title>TC_CP_019</title>
<path fill="#f4b084" stroke="#1f4e79" stroke-width="1.5" d="M1458.06,-408.12C1458.06,-408.12 1458.06,-417.9 1458.06,-417.9 1458.06,-422.79 1453.48,-429.38 1448.89,-431.07 1448.89,-431.07 1411.09,-445.04 1411.09,-445.04 1406.51,-446.73 1397.03,-448.43 1392.14,-448.43 1392.14,-448.43 1332.3,-448.43 1332.3,-448.43 1327.41,-448.43 1317.93,-446.73 1313.35,-445.04 1313.35,-445.04 1275.55,-431.07 1275.55,-431.07 1270.97,-429.38 1266.38,-422.79 1266.38,-417.9 1266.38,-417.9 1266.38,-408.12 1266.38,-408.12 1266.38,-403.23 1270.97,-396.65 1275.55,-394.96 1275.55,-394.96 1313.35,-380.99 1313.35,-380.99 1317.93,-379.29 1327.41,-377.6 1332.3,-377.6 1332.3,-377.6 1392.14,-377.6 1392.14,-377.6 1397.03,-377.6 1406.51,-379.29 1411.09,-380.99 1411.09,-380.99 1448.89,-394.96 1448.89,-394.96 1453.48,-396.65 1458.06,-403.23 1458.06,-408.12"/>
<text text-anchor="start" x="1338.72" y="-425.81" font-family="Arial" font-weight="bold" font-size="9.00">TC&#45;CP&#45;019</text>
<text text-anchor="start" x="1307.72" y="-417.61" font-family="Arial" font-size="8.00">Outage active — CTA disabled</text>
<text text-anchor="start" x="1352.72" y="-410.41" font-family="Arial" font-size="7.00" fill="#404040">→ n/a</text>
<text text-anchor="start" x="1333.22" y="-403.41" font-family="Arial" font-size="7.00" fill="#c00000">OUTAGE_ACTIVE</text>
<text text-anchor="start" x="1342.22" y="-396.41" font-family="Arial" font-size="7.00" fill="#7f7f7f">failure · Pri A</text>
</g>
<!-- TT_CP_R1_F_hub&#45;&gt;TC_CP_019 -->
<g id="edge26" class="edge">
<title>TT_CP_R1_F_hub&#45;&gt;TC_CP_019</title>
<path fill="none" stroke="#7f7f7f" d="M1126.17,-561.85C1170.54,-533.87 1256.62,-479.6 1311.66,-444.89"/>
</g>
<!-- TC_CP_020 -->
<g id="node28" class="node">
<title>TC_CP_020</title>
<path fill="#f4b084" stroke="#1f4e79" stroke-width="1.5" d="M1519.78,-580.04C1519.78,-580.04 1519.78,-589.82 1519.78,-589.82 1519.78,-594.71 1515.13,-601.1 1510.48,-602.61 1510.48,-602.61 1465.01,-617.33 1465.01,-617.33 1460.35,-618.84 1450.81,-620.34 1445.92,-620.34 1445.92,-620.34 1374.86,-620.34 1374.86,-620.34 1369.97,-620.34 1360.42,-618.84 1355.77,-617.33 1355.77,-617.33 1310.3,-602.61 1310.3,-602.61 1305.65,-601.1 1300.99,-594.71 1300.99,-589.82 1300.99,-589.82 1300.99,-580.04 1300.99,-580.04 1300.99,-575.15 1305.65,-568.75 1310.3,-567.24 1310.3,-567.24 1355.77,-552.52 1355.77,-552.52 1360.42,-551.02 1369.97,-549.51 1374.86,-549.51 1374.86,-549.51 1445.92,-549.51 1445.92,-549.51 1450.81,-549.51 1460.35,-551.02 1465.01,-552.52 1465.01,-552.52 1510.48,-567.24 1510.48,-567.24 1515.13,-568.75 1519.78,-575.15 1519.78,-580.04"/>
<text text-anchor="start" x="1386.89" y="-597.73" font-family="Arial" font-weight="bold" font-size="9.00">TC&#45;CP&#45;020</text>
<text text-anchor="start" x="1346.89" y="-589.53" font-family="Arial" font-size="8.00">Mid&#45;wizard interlock self&#45;disclosur…</text>
<text text-anchor="start" x="1392.89" y="-582.33" font-family="Arial" font-size="7.00" fill="#404040">→ ERROR</text>
<text text-anchor="start" x="1367.89" y="-575.33" font-family="Arial" font-size="7.00" fill="#c00000">ELIGIBILITY_INTERLOCK</text>
<text text-anchor="start" x="1390.39" y="-568.33" font-family="Arial" font-size="7.00" fill="#7f7f7f">failure · Pri A</text>
</g>
<!-- TT_CP_R1_F_hub&#45;&gt;TC_CP_020 -->
<g id="edge27" class="edge">
<title>TT_CP_R1_F_hub&#45;&gt;TC_CP_020</title>
<path fill="none" stroke="#7f7f7f" d="M1168.19,-581C1207.29,-581.64 1256.75,-582.44 1300.77,-583.15"/>
</g>
</g>
</svg>
